<ttFont>
          <CharString index="0">
            332 80 -107 callgsubr
            return
          </CharString>
          <CharString index="1">
            -51 callgsubr
            -22 -29 -28 -24 -13 2 -14 16 -88 callgsubr
            -128 hmoveto
            2 -1 18 callsubr
            hhcurveto
            -23 -28 -28 -24 -13 3 -14 14 -88 callgsubr
            endchar
          </CharString>
          <CharString index="2">
            rmoveto
            12 6 7 7 5 vvcurveto
            5 -6 4 -13 2 vhcurveto
            -40 4 13 111 -30 3 -65 callsubr
            0 callsubr
            vvcurveto
            -58 24 -26 34 71 111 115 168 vhcurveto
            5 9 1 4 9 hvcurveto
            -51 3 rmoveto
            -83 callgsubr
            return
          </CharString>
          <CharString index="3">
            vstem
            284 269 -105 callsubr
            return
          </CharString>
          <CharString index="4">
            -14 callsubr
            hstem
            -107 callsubr
            return
          </CharString>
          <CharString index="5">
            546 275 rmoveto
            -63 callgsubr
            2 5 1 4 5 vvcurveto
            11 -7 9 -15 -33 -11 -19 -11 37 callgsubr
            3 -97 callsubr
            return
          </CharString>
          <CharString index="6">
            rmoveto
            6 -1 -6 3 -8 hhcurveto
            -45 -63 callsubr
            -22 -14 -33 -58 callgsubr
            26 95 61 16 vhcurveto
            3 -1 -8 callsubr
            -15 -40 -30 -12 hhcurveto
            -7 -3 -38 callsubr
            164 67 111 20 39 rrcurveto
            return
          </CharString>
          <CharString index="7">
            hstem
            221 31 -104 callsubr
            return
          </CharString>
          <CharString index="8">
            rmoveto
            31 -17 84 -41 46 -23 rrcurveto
            18 callgsubr
            0 2 hhcurveto
            2 1 1 2 12 -75 59 -71 47 hvcurveto
            2 -4 -17 callsubr
            -12 -9 -15 -12 -6 2 -6 6 -3 hvcurveto
            endchar
          </CharString>
          <CharString index="9">
            -21 callsubr
            -102 callgsubr
            return
          </CharString>
          <CharString index="10">
            -4 vhcurveto
            -86 -92 -94 -116 -98 callgsubr
            return
          </CharString>
          <CharString index="11">
            -39 callgsubr
            19 -2 27 29 vvcurveto
            66 7 80 5 48 -92 callgsubr
            return
          </CharString>
          <CharString index="12">
            -93 callsubr
            -146 91 -120 195 return
          </CharString>
          <CharString index="13">
            198 379 -101 callsubr
            return
          </CharString>
          <CharString index="14">
            9 12 14 22 19 vvcurveto
            30 -39 8 -31 -95 -93 -56 -61 -63 vhcurveto
            -30 -11 -86 -36 -16 vvcurveto
            -5 4 -4 5 5 33 19 14 31 vhcurveto
            -91 -84 -42 -113 -104 vvcurveto
            return
          </CharString>
          <CharString index="15">
            46 callsubr
            hintmask 10110000
            -73 callsubr
            hintmask 01110000
            -79 callgsubr
            hintmask 10110000
            -85 callsubr
            return
          </CharString>
          <CharString index="16">
            364 388 rmoveto
            1 -2 -2 0 -3 hhcurveto
            -22 -54 -27 -18 hvcurveto
            -4 2 3 -1 3 5 6 4 4 hhcurveto
            3 2 -2 -4 -36 -130 -205 -32 -5 -3 5 11 hvcurveto
            16 1 16 16 vvcurveto
            104 -25 104 -29 -12 -16 -35 -7 -10 vhcurveto
            -17 -12 -5 -8 -4 3 callgsubr
            -2 2 vhcurveto
            2 6 1 6 hhcurveto
            39 19 -107 -99 -35 -3 -31 -8 -24 hvcurveto
            -6 -18 -172 -213 -82 vvcurveto
            -13 4 -6 12 15 21 12 15 vhcurveto
            8 -8 7 16 vvcurveto
            32 36 67 99 133 vhcurveto
            3 8 -5 7 hhcurveto
            16 13 97 -19 hvcurveto
            32 37 196 245 62 vvcurveto
            5 -1 38 callgsubr
            vhcurveto
            return
          </CharString>
          <CharString index="17">
            -6 9 -19 vhcurveto
            -16 -1 -16 -9 -11 -5 callgsubr
            -79 callsubr
            return
          </CharString>
          <CharString index="18">
            hhcurveto
            -52 -18 55 86 41 5 47 6 52 hvcurveto
            9 83 42 188 54 49 rrcurveto
            30 callsubr
            3 vvcurveto
            9 -11 8 -16 -12 -15 -4 -11 -14 vhcurveto
            -12 -10 -32 -58 -25 vvcurveto
            -6 2 -4 4 -1 vhcurveto
            return
          </CharString>
          <CharString index="19">
            -12 vvcurveto
            -2 2 -1 2 -32 callgsubr
            vhcurveto
            46 23 84 41 31 17 rrcurveto
            endchar
          </CharString>
          <CharString index="20">
            vvcurveto
            -54 41 -13 25 41 100 89 38 5 31 callsubr
            vhcurveto
            -81 callgsubr
            return
          </CharString>
          <CharString index="21">
            15 55 76 13 75 hhcurveto
            14 13 0 -1 14 hvcurveto
            -6 -5 -3 -7 -4 3 callgsubr
            -1 3 4 9 4 14 12 vhcurveto
            return
          </CharString>
          <CharString index="22">
            -129 -96 -64 -46 -43 -89 callsubr
            return
          </CharString>
          <CharString index="23">
            -20 hstemhm
            89 51 hintmask 10110110
            515 -48 callsubr
            hintmask 10101110
            -39 callsubr
            vhcurveto
            hintmask 10110110
            -70 callgsubr
            hintmask 01110110
            -52 callsubr
            hintmask 10110110
            -96 callsubr
            return
          </CharString>
          <CharString index="24">
            rmoveto
            -1 1 -20 callsubr
            hhcurveto
            3 2 4 4 2 0 3 -1 2 hvcurveto
            -8 15 -56 return
          </CharString>
          <CharString index="25">
            -73 callgsubr
            -95 -7 -89 -51 vvcurveto
            -10 0 -9 1 -7 -35 callsubr
            return
          </CharString>
          <CharString index="26">
            -32 -30 21 -33 hhcurveto
            -13 -12 -3 -7 -11 hvcurveto
            -9 -5 -34 -26 -10 vvcurveto
            -1 0 13 callsubr
            13 11 26 30 return
          </CharString>
          <CharString index="27">
            -39 callsubr
            -35 -20 -20 -17 -8 -64 callgsubr
            -18 -192 -50 callgsubr
            return
          </CharString>
          <CharString index="28">
            -61 callgsubr
            -64 -101 -238 -92 -25 6 -11 18 return
          </CharString>
          <CharString index="29">
            -1 callgsubr
            158 -20 hstemhm
            hintmask 10101000
            -60 callsubr
            hintmask 10011000
            -80 callsubr
            hintmask 01101000
            -13 callgsubr
            hintmask 10101000
            -68 callgsubr
            return
          </CharString>
          <CharString index="30">
            251 631 -25 callsubr
            -18 -25 -23 0 hvcurveto
            1 vlineto
            -1 -5 callsubr
            -5 vvcurveto
            -35 -69 -81 -32 -32 vhcurveto
            -1 hlineto
            -3 1 -2 4 -7 callgsubr
            130 8 -36 callgsubr
            -5 -25 callgsubr
            -1 vlineto
            28 callgsubr
            -35 -68 -80 -32 -32 vhcurveto
            -1 -1 rlineto
            -1 20 callgsubr
            1 vlineto
            2 -42 callgsubr
            endchar
          </CharString>
          <CharString index="31">
            -67 callgsubr
            vvcurveto
            15 4 11 9 2 vhcurveto
            -1 12 7 7 -22 callsubr
            hvcurveto
            -8 callgsubr
            return
          </CharString>
          <CharString index="32">
            hstem
            360 372 rmoveto
            -1 callsubr
            3 -11 -84 -128 -200 -66 -41 vhcurveto
            17 76 62 125 19 39 7 callgsubr
            -46 -13 -23 -82 -29 -19 callsubr
            -14 -44 -71 -209 -3 4 rrcurveto
            -5 1 2 -2 5 hhcurveto
            16 32 23 9 1 hvcurveto
            3 40 156 215 46 52 rrcurveto
            13 12 6 5 4 hhcurveto
            2 1 36 callsubr
            -2 -7 -3 -8 hvcurveto
            -28 -73 -72 -146 -87 vvcurveto
            -32 10 -11 19 30 36 26 16 4 -2 2 -4 vhcurveto
            -6 -27 -20 -6 hhcurveto
            -6 -2 7 11 78 76 177 63 105 hvcurveto
            return
          </CharString>
          <CharString index="33">
            rmoveto
            2 -4 -7 1 callgsubr
            -15 -368 -288 -78 -9 6 -6 11 3 13 3 4 hvcurveto
            2 -9 3 8 vvcurveto
            40 249 213 121 91 vhcurveto
            4 3 2 3 2 35 callsubr
            1 13 callsubr
            return
          </CharString>
          <CharString index="34">
            119 547 rmoveto
            -44 callsubr
            59 139 77 269 138 vhcurveto
            -13 -107 -10 -110 -10 -114 rrcurveto
            return
          </CharString>
          <CharString index="35">
            -14 -13 -15 -9 -41 callsubr
            hvcurveto
            return
          </CharString>
          <CharString index="36">
            -4 11 -20 380 -20 hstem
            246 51 vstem
            333 345 rmoveto
            1 4 0 4 callsubr
            25 -122 -7 -28 -77 -25 -24 -55 -4 4 -3 5 4 26 34 4 4 vhcurveto
            12 11 33 2 47 hhcurveto
            54 hlineto
            -83 -100 -122 -119 -57 -55 rrcurveto
            -10 -9 -9 -19 -16 vvcurveto
            -13 6 -10 19 vhcurveto
            24 46 7 66 hhcurveto
            28 32 -2 -3 36 hvcurveto
            -4 4 -6 9 20 18 31 15 4 -3 3 -7 -4 -6 -1 -2 -7 vhcurveto
            -5 -20 -77 -9 -58 hhcurveto
            -38 -30 4 12 2 47 callsubr
            2 hvcurveto
            47 70 144 140 56 46 2 5 24 -4 11 40 rrcurveto
            return
          </CharString>
          <CharString index="37">
            rmoveto
            45 9 69 47 46 vvcurveto
            35 -25 10 -32 -41 -52 -18 -10 -24 vhcurveto
            3 4 5 3 6 30 callgsubr
            -2 -4 -39 -33 -5 -9 vhcurveto
            -8 -3 -4 -12 -8 vvcurveto
            -4 1 -3 26 callgsubr
            47 callsubr
            vhcurveto
            22 33 68 29 42 hhcurveto
            28 13 -13 -16 -70 -111 -23 -61 -11 -7 -10 -8 37 callgsubr
            9 hvcurveto
            15 32 12 29 hhcurveto
            45 44 -15 -45 -105 -130 -55 -106 -60 -44 23 45 55 58 34 42 6 3 3 3 3 31 callsubr
            -62 -78 -36 -66 -58 60 -25 80 113 161 67 111 55 -51 17 -45 4 hvcurveto
            return
          </CharString>
          <CharString index="38">
            rmoveto
            28 29 31 41 38 vvcurveto
            33 -23 14 -33 -87 -95 -49 -54 -63 vhcurveto
            -3 -2 -1 -3 -2 vvcurveto
            -5 3 -3 3 3 1 0 3 2 vhcurveto
            48 51 96 36 50 hhcurveto
            26 17 -9 -25 -63 -55 -47 -47 -38 hvcurveto
            -42 -32 -85 -50 -61 -34 rrcurveto
            -5 hlineto
            -54 -56 -25 -29 -6 3 -4 10 35 32 38 9 28 hvcurveto
            -3 77 61 -53 81 hhcurveto
            47 46 22 36 12 -16 34 -38 -4 -3 -2 -2 18 callsubr
            3 -1 hvcurveto
            27 -9 10 -12 -13 vvcurveto
            -20 -25 -18 -45 -74 -57 36 7 -68 vhcurveto
            132 65 70 47 66 69 rrcurveto
            return
          </CharString>
          <CharString index="39">
            -62 callgsubr
            -51 callsubr
            endchar
          </CharString>
          <CharString index="40">
            vstem
            95 69 rmoveto
            -6 -11 -22 -38 -10 vvcurveto
            46 callgsubr
            69 6 47 66 5 vhcurveto
            3 44 17 89 13 38 -76 callsubr
            31 callgsubr
            -6 vvcurveto
            -74 -30 -75 -20 -43 vhcurveto
            return
          </CharString>
          <CharString index="41">
            -55 callgsubr
            -46 25 rmoveto
            -303 -2 53 97 103 return
          </CharString>
          <CharString index="42">
            rrcurveto
            -19 -11 -17 -17 -54 callsubr
            return
          </CharString>
          <CharString index="43">
            -12 -3 -4 -1 -2 -3 vhcurveto
            -71 -47 -76 return
          </CharString>
          <CharString index="44">
            -16 -24 -81 -28 -62 callsubr
            return
          </CharString>
          <CharString index="45">
            hvcurveto
            -61 callsubr
            return
          </CharString>
          <CharString index="46">
            -2 -6 -1 -4 -3 -5 3 -1 -7 vvcurveto
            return
          </CharString>
          <CharString index="47">
            319 622 -57 callgsubr
            11 24 rlineto
            2 vlineto
            return
          </CharString>
          <CharString index="48">
            -170 -75 120 136 110 40 120 103 77 return
          </CharString>
          <CharString index="49">
            -43 -108 rrcurveto
            -72 -29 -35 -31 -31 hhcurveto
            -34 -28 39 63 9 1 9 1 10 hvcurveto
            4 -1 -2 2 -2 hhcurveto
            -9 -15 -37 -39 -33 6 -47 71 54 76 38 153 49 hvcurveto
            31 96 return
          </CharString>
          <CharString index="50">
            19 3 11 6 6 vvcurveto
            6 -11 4 -22 1 vhcurveto
            -15 113 return
          </CharString>
          <CharString index="51">
            -101 callsubr
            endchar
          </CharString>
          <CharString index="52">
            -39 hlineto
            -23 -19 -10 -6 -33 callsubr
            return
          </CharString>
          <CharString index="53">
            hvcurveto
            -7 hlineto
            -89 -66 -214 -57 -10 hvcurveto
            -3 return
          </CharString>
          <CharString index="54">
            vvcurveto
            4 -2 2 -4 return
          </CharString>
          <CharString index="55">
            48 47 1 44 -37 callgsubr
            -1 hlineto
            return
          </CharString>
          <CharString index="56">
            30 callsubr
            6 7 -1 7 hhcurveto
            70 122 15 14 4 -6 2 -12 hvcurveto
            -15 -1 -36 -1 0 vvcurveto
            return
          </CharString>
          <CharString index="57">
            -18 122 35 hstem
            190 154 -68 callsubr
          </CharString>
          <CharString index="58">
            2 36 callgsubr
            -3 -89 -68 -20 -21 vhcurveto
            -14 21 -49 52 -15 13 rrcurveto
            endchar
          </CharString>
          <CharString index="59">
            635 -36 callsubr
            13 14 25 9 vvcurveto
            return
          </CharString>
          <CharString index="60">
            34 30 -27 35 hhcurveto
            7 60 20 30 hvcurveto
            endchar
          </CharString>
          <CharString index="61">
            -8 22 2 -3 vvcurveto
            -7 -26 -46 -144 -25 -77 rrcurveto
            -16 -10 -6 -14 -13 vvcurveto
            -6 1 -6 2 -5 vhcurveto
            -24 -68 -73 -182 -46 vvcurveto
            -18 6 -7 6 24 22 54 11 vhcurveto
            11 -7 3 7 vvcurveto
            1 0 1 1 2 vhcurveto
            19 57 26 73 25 73 rrcurveto
            -18 22 37 -8 31 hhcurveto
            return
          </CharString>
          <CharString index="62">
            vstem
            380 413 rmoveto
            12 -138 2 -29 1 vhcurveto
            5 60 5 61 60 vvcurveto
            19 vlineto
            -2 1 rlineto
            -6 -1 -26 -13 -7 vvcurveto
            -60 -1 -60 -3 -60 vhcurveto
            -51 -1 -53 0 -50 -6 rrcurveto
            -21 callgsubr
            80 4 return
          </CharString>
          <CharString index="63">
            -34 -97 -29 -142 -115 vvcurveto
            -109 26 -85 69 return
          </CharString>
          <CharString index="64">
            2 vlineto
            -34 callsubr
            return
          </CharString>
          <CharString index="65">
            45 vstem
            85 256 rmoveto
            6 callgsubr
            -32 43 -33 33 -45 8 -4 rcurveline
            9 1 6 7 18 -82 97 -15 19 hvcurveto
            13 18 86 125 10 vvcurveto
            4 -3 2 -4 -7 -8 -4 -7 -4 vhcurveto
            -19 -28 -99 -126 -21 vvcurveto
            return
          </CharString>
          <CharString index="66">
            -4 3 -3 7 return
          </CharString>
          <CharString index="67">
            rmoveto
            -4 -6 -1 -6 -5 vvcurveto
            -6 1 -4 3 vhcurveto
            -2 31 39 26 hhcurveto
            hintmask 10010100
            48 81 -24 56 hhcurveto
            45 24 28 22 10 hvcurveto
            2 4 0 3 1 vvcurveto
            2 0 1 -2 vhcurveto
            -6 -18 -30 -25 hhcurveto
            -5 -7 1 1 -7 hvcurveto
            return
          </CharString>
          <CharString index="68">
            7 -7 3 -8 return
          </CharString>
          <CharString index="69">
            -27 callsubr
            37 return
          </CharString>
          <CharString index="70">
            -10 callgsubr
            -2 2 vhcurveto
            -45 36 -42 27 -34 47 -8 4 rcurveline
            -9 -2 -5 -8 -18 81 -96 17 -20 hvcurveto
            -14 -19 -85 -123 -11 vvcurveto
            -4 38 callgsubr
            9 5 5 6 5 vhcurveto
            18 21 101 137 17 vvcurveto
            return
          </CharString>
          <CharString index="71">
            rmoveto
            -30 callgsubr
            return
          </CharString>
          <CharString index="72">
            vhcurveto
            -15 -3 -20 -21 -10 vvcurveto
            -9 247 3 54 vhcurveto
            return
          </CharString>
          <CharString index="73">
            -39 callsubr
            -55 -20 -44 -44 vhcurveto
            return
          </CharString>
          <CharString index="74">
            -26 callgsubr
            53 hlineto
            return
          </CharString>
          <CharString index="75">
            9 31 10 5 36 vhcurveto
            15 112 100 19 103 hhcurveto
            40 33 -10 -25 -10 -5 -13 -13 -15 hvcurveto
            0 -1 -10 6 13 34 46 34 38 -62 3 -55 -140 -195 -48 -5 -28 vhcurveto
            return
          </CharString>
          <CharString index="76">
            -82 callgsubr
            -1 return
          </CharString>
          <CharString index="77">
            -14 10 -8 14 23 10 18 33 11 -2 return
          </CharString>
          <CharString index="78">
            rmoveto
            1 -1 36 callgsubr
            hhcurveto
            -14 -46 -26 -25 -14 1 -25 16 32 2 24 64 13 hvcurveto
            return
          </CharString>
          <CharString index="79">
            11 callgsubr
            -24 17 -14 24 48 44 47 47 vhcurveto
            -20 hmoveto
            -23 callsubr
          </CharString>
          <CharString index="80">
            4 8 2 0 32 callsubr
            hvcurveto
            return
          </CharString>
          <CharString index="81">
            16 callsubr
            100 155 54 74 54 43 -16 -61 vhcurveto
            -21 10 callgsubr
            46 -15 54 -86 -155 -147 -104 -115 return
          </CharString>
          <CharString index="82">
            rmoveto
            6 -3 -5 2 -6 hhcurveto
            return
          </CharString>
          <CharString index="83">
            -21 -9 -3 -11 -10 -13 hvcurveto
            0 -1 -8 5 9 25 39 29 32 -45 3 -40 return
          </CharString>
          <CharString index="84">
            -37 -27 -38 -34 -21 -8 12 16 44 41 37 23 18 8 -14 -20 vhcurveto
            endchar
          </CharString>
          <CharString index="85">
            9 -29 5 -13 -17 -28 -4 -27 -10 2 -15 5 -14 return
          </CharString>
          <CharString index="86">
            -54 11 -20 201 27 152 -20 hstem
            return
          </CharString>
          <CharString index="87">
            1 -1 1 return
          </CharString>
          <CharString index="88">
            -62 callsubr
            -3 -1 -6 -3 -9 vhcurveto
            return
          </CharString>
          <CharString index="89">
            -1 -2 1 return
          </CharString>
          <CharString index="90">
            -3 1 callgsubr
            return
          </CharString>
          <CharString index="91">
            -3 -8 -1 -7 -34 callgsubr
            28 93 61 16 vhcurveto
            3 -2 -8 callsubr
            -14 -39 -30 -13 hhcurveto
            -6 -4 4 8 return
          </CharString>
          <CharString index="92">
            270 -1 31 -9 -21 300 31 279 24 -24 82 return
          </CharString>
          <CharString index="93">
            22 12 -20 389 -20 return
          </CharString>
          <CharString index="94">
            -11 -35 -51 -5 -29 return
          </CharString>
          <CharString index="95">
            -18 -20 -19 -23 vvcurveto
            -11 7 -8 14 22 18 21 41 105 -97 17 -78 -246 -135 -180 -204 return
          </CharString>
          <CharString index="96">
            587 rmoveto
            4 13 19 34 13 24 callsubr
            return
          </CharString>
          <CharString index="97">
            21 22 hvcurveto
            14 14 44 32 18 hhcurveto
            13 4 -7 -9 hvcurveto
            -13 -8 -19 -13 vvcurveto
            -12 5 -6 7 return
          </CharString>
          <CharString index="98">
            hlineto
            26 11 4 5 1 -2 2 -3 2 hvcurveto
            endchar
          </CharString>
          <CharString index="99">
            -3 1 -4 return
          </CharString>
          <CharString index="100">
            rmoveto
            1 vlineto
            14 -1 24 -15 -34 -1 -25 -63 -12 vhcurveto
            -1 1 -1 2 13 47 26 25 vhcurveto
            return
          </CharString>
          <CharString index="101">
            24 225 15 25 14 hstem
            7 27 336 26 return
          </CharString>
          <CharString index="102">
            12 callgsubr
            -6 -25 callgsubr
            -18 callgsubr
            return
          </CharString>
          <CharString index="103">
            16 callgsubr
            183 126 179 208 60 72 -31 -49 hvcurveto
            return
          </CharString>
          <CharString index="104">
            2 callgsubr
            -11 return
          </CharString>
          <CharString index="105">
            75 hhcurveto
            38 55 38 98 19 1 42 -21 -5 -4 -4 -12 hvcurveto
            -12 3 -15 -18 vvcurveto
            return
          </CharString>
          <CharString index="106">
            5 8 2 7 5 vvcurveto
            10 -9 return
          </CharString>
          <CharString index="107">
            -17 -1 -16 -13 return
          </CharString>
          <CharString index="108">
            -178 317 28 -129 vvcurveto
            -93 -126 -62 -92 -51 -34 7 35 -20 vhcurveto
            return
          </CharString>
          <CharString index="109">
            vhcurveto
            -39 hlineto
            -24 -12 -21 -12 -6 2 -4 5 hvcurveto
            6 28 6 18 hhcurveto
            8 hlineto
            return
          </CharString>
          <CharString index="110">
            rmoveto
            21 -25 13 -17 -14 -24 -4 -25 -19 19 -16 23 14 24 13 17 vhcurveto
            return
          </CharString>
          <CharString index="111">
            3 3 vvcurveto
            return
          </CharString>
          <CharString index="112">
            -78 -8 vhcurveto
            -2 -14 -19 0 -19 hhcurveto
            -30 -29 2 4 -4 hvcurveto
            6 59 return
          </CharString>
          <CharString index="113">
            14 -21 24 -21 274 29 return
          </CharString>
          <CharString index="114">
            26 393 -20 hstem
            return
          </CharString>
          <CharString index="115">
            10 callsubr
            hvcurveto
            0 19 -30 15 -9 vhcurveto
            return
          </CharString>
          <CharString index="116">
            vvcurveto
            27 -1 59 -39 -7 -10 -1 -9 vhcurveto
            -19 8 -27 -126 vvcurveto
            return
          </CharString>
          <CharString index="117">
            -18 -2 14 13 50 97 123 38 return
          </CharString>
          <CharString index="118">
            489 -18 24 591 24 54 30 return
          </CharString>
          <CharString index="119">
            1 3 2 vvcurveto
            return
          </CharString>
          <CharString index="120">
            -1 2 vhcurveto
            return
          </CharString>
          <CharString index="121">
            rlinecurve
            -7 -92 rlineto
            -1 -12 -2 -13 -13 vvcurveto
            -2 1 -4 3 return
          </CharString>
          <CharString index="122">
            -26 hvcurveto
            -2 -6 -1 -3 -3 -6 return
          </CharString>
          <CharString index="123">
            rmoveto
            3 -1 4 callsubr
            return
          </CharString>
          <CharString index="124">
            16 -124 rrcurveto
            return
          </CharString>
          <CharString index="125">
            -2 1 -2 return
          </CharString>
          <CharString index="126">
            vvcurveto
            -8 3 -2 4 11 19 15 4 vhcurveto
            27 vlineto
            return
          </CharString>
          <CharString index="127">
            11 vvcurveto
            -20 callsubr
            -3 -2 -4 -1 -1 -5 vhcurveto
            return
          </CharString>
          <CharString index="128">
            36 -20 11 -27 -34 -15 -19 -15 -41 vhcurveto
            -42 -19 return
          </CharString>
          <CharString index="129">
            hhcurveto
            -79 hlineto
            -8 -6 -10 -9 -6 3 -5 9 hvcurveto
            return
          </CharString>
          <CharString index="130">
            vvcurveto
            -8 9 -4 11 5 5 1 2 6 vhcurveto
            return
          </CharString>
          <CharString index="131">
            vvcurveto
            -39 callsubr
            return
          </CharString>
          <CharString index="132">
            -3 16 -1 return
          </CharString>
          <CharString index="133">
            1 2 12 callsubr
            12 -14 12 -13 return
          </CharString>
          <CharString index="134">
            -13 7 -3 15 9 10 3 7 3 vhcurveto
            return
          </CharString>
          <CharString index="135">
            -7 -25 rrcurveto
            -64 hlineto
            -10 return
          </CharString>
          <CharString index="136">
            -98 -126 -51 return
          </CharString>
          <CharString index="137">
            3 32 callsubr
            return
          </CharString>
          <CharString index="138">
            -2 3 -5 return
          </CharString>
          <CharString index="139">
            3 1 3 return
          </CharString>
          <CharString index="140">
            20 hvcurveto
            14 19 85 124 10 vvcurveto
            return
          </CharString>
          <CharString index="141">
            132 -307 -36 -21 171 vhcurveto
            return
          </CharString>
          <CharString index="142">
            vvcurveto
            3 -2 return
          </CharString>
          <CharString index="143">
            -2 -3 -5 return
          </CharString>
          <CharString index="144">
            -16 -13 vvcurveto
            return
          </CharString>
          <CharString index="145">
            -97 339 45 callsubr
            hstem
            return
          </CharString>
          <CharString index="146">
            -145 -18 -7 vhcurveto
            -2 -5 -1 return
          </CharString>
          <CharString index="147">
            655 -20 hstem
            118 40 vstem
            return
          </CharString>
          <CharString index="148">
            4 -2 2 -3 1 vhcurveto
            -2 -8 return
          </CharString>
          <CharString index="149">
            vvcurveto
            31 callgsubr
            -2 return
          </CharString>
          <CharString index="150">
            -35 -18 -12 -46 -8 return
          </CharString>
          <CharString index="151">
            10 300 69 hstem
            return
          </CharString>
          <CharString index="152">
            28 271 24 return
          </CharString>
          <CharString index="153">
            -20 hstemhm
            56 49 return
          </CharString>
          <CharString index="154">
            0 2 2 return
          </CharString>
          <CharString index="155">
            -3 1 -1 return
          </CharString>
        <CharString name=".notdef">
          -107 endchar
        </CharString>
        <CharString name=".null">
          -307 endchar
        </CharString>
        <CharString name="A">
          6 callsubr
          372 43 callgsubr
          hintmask 10111000
          546 275 rmoveto
          -57 callsubr
          -42 165 -22 57 rrcurveto
          2 5 1 4 5 vvcurveto
          11 -7 10 -16 -33 -11 -20 -11 37 callgsubr
          3 -4 vhcurveto
          -86 -95 -94 -122 -98 callgsubr
          hintmask 01111000
          -66 callsubr
          130 76 80 rlinecurve
          10 -30 45 -151 17 callsubr
          endchar
        </CharString>
        <CharString name="AE">
          653 269 33 353 19 hstem
          -27 37 447 35 vstem
          948 46 rmoveto
          -13 callsubr
          -134 -94 1 -48 hhcurveto
          -1 3 0 5 6 vvcurveto
          55 15 147 6 24 vhcurveto
          242 hlineto
          -82 callgsubr
          -2 -46 -175 -1 -48 hhcurveto
          5 58 40 233 10 27 -86 callgsubr
          -38 callgsubr
          6 15 -3 -9 6 12 rrcurveto
          11 -10 4 -10 -36 1 -31 -2 -23 vhcurveto
          -38 -4 -31 1 -14 vvcurveto
          -4 6 -4 16 vhcurveto
          13 hlineto
          -110 -91 -121 -129 -94 -105 rrcurveto
          -50 hlineto
          -15 -18 -17 -9 -3 2 -2 6 hvcurveto
          23 9 8 callgsubr
          -63 -75 -66 -88 -40 -91 rrcurveto
          -5 -11 -2 -6 -3 vvcurveto
          -4 6 1 11 9 10 1 10 3 vhcurveto
          39 92 71 92 67 82 rrcurveto
          101 96 2 1 100 hvcurveto
          -14 -88 -16 -180 6 vvcurveto
          -8 4 -4 13 vhcurveto
          143 129 1 133 -37 callgsubr
          -356 580 rmoveto
          -18 -71 -27 -152 -14 -103 rrcurveto
          -276 hlineto
          77 95 189 193 69 38 rrcurveto
          endchar
        </CharString>
        <CharString name="Aacute">
          6 callsubr
          536 -78 callgsubr
          48 493 -99 callgsubr
        </CharString>
        <CharString name="Acircumflex">
          6 callsubr
          399 -20 145 43 callgsubr
          hintmask 10111100
          -102 callsubr
          hintmask 01111100
          -75 callgsubr
          36 400 -103 callgsubr
        </CharString>
        <CharString name="Adieresis">
          374 4 callgsubr
          -77 callgsubr
          45 530 -106 callsubr
        </CharString>
        <CharString name="Agrave">
          6 callsubr
          537 -78 callgsubr
          -156 494 -99 callsubr
        </CharString>
        <CharString name="Aring">
          649 45 callgsubr
          389 37 72 24 vstem
          522 743 11 callgsubr
          -18 9 -12 14 -5 vhcurveto
          -9 -6 -3 -8 -7 vvcurveto
          -6 2 -6 4 -97 callsubr
          -55 callgsubr
          -63 callgsubr
          1 4 1 4 4 vvcurveto
          6 -2 6 -3 4 vhcurveto
          35 14 27 37 37 vvcurveto
          -22 -443 rmoveto
          -303 -2 53 97 103 124 76 78 rlinecurve
          10 -29 45 -144 17 callsubr
          2 443 rmoveto
          -23 callsubr
        </CharString>
        <CharString name="Atilde">
          688 27 hstem
          -77 callgsubr
          60 490 -91 callgsubr
        </CharString>
        <CharString name="B">
          324 -11 25 -9 -21 312 21 308 25 42 -20 hstemhm
          101 43 309 44 52 46 hintmask 01111111
          595 197 rmoveto
          98 -122 22 -89 -19 -17 -1 -1 -14 vhcurveto
          62 26 101 64 81 vvcurveto
          126 -193 27 -85 8 vhcurveto
          2 6 18 15 14 24 callsubr
          -27 -28 -8 -34 -6 vhcurveto
          -39 hlineto
          -23 -19 -10 -7 -33 callsubr
          -28 -115 -28 -221 -151 vvcurveto
          -44 2 -37 6 -28 vhcurveto
          2 -8 -3 1 -2 hhcurveto
          -6 -5 -4 -5 -13 29 -26 21 8 7 3 9 4 hvcurveto
          hintmask 10111111
          -5 24 28 -2 30 hhcurveto
          155 204 66 142 hvcurveto
          -46 -10 rmoveto
          -129 -173 -44 -138 -33 -31 3 5 -24 vhcurveto
          -4 41 -2 66 57 vvcurveto
          40 1 35 2 17 vhcurveto
          9 60 52 9 62 hhcurveto
          91 135 -18 -91 2 hvcurveto
          -98 313 rmoveto
          1 -8 1 -7 -7 vvcurveto
          -146 -248 -23 -33 vhcurveto
          -13 -9 1 -1 hhcurveto
          4 59 41 203 17 51 rrcurveto
          1 hlineto
          67 -8 146 -31 26 -84 rrcurveto
          endchar
        </CharString>
        <CharString name="C">
          377 -16 23 467 184 -25 25 hstemhm
          59 49 446 61 -41 41 hintmask 10110100
          639 162 rmoveto
          -37 -26 -89 -118 -185 -4 callsubr
          hintmask 11011000
          -12 callsubr
          -175 99 -115 190 109 194 58 110 9 -2 6 -3 -2 -2 -2 -3 -3 vhcurveto
          endchar
        </CharString>
        <CharString name="CR">
          -107 endchar
        </CharString>
        <CharString name="Ccedilla">
          377 275 36 16 42 vstem
          370 -162 rmoveto
          45 -57 30 26 vvcurveto
          18 6 15 14 12 vhcurveto
          15 hlineto
          109 194 58 110 9 -2 6 -3 hvcurveto
          -13 -87 -160 -207 -4 callsubr
          -12 callsubr
          -161 83 -110 161 -16 vhcurveto
          -19 -17 -6 -23 -23 -34 51 -35 -26 -81 -114 39 -27 vvcurveto
          -5 4 -5 5 56 90 26 62 vhcurveto
          endchar
        </CharString>
        <CharString name="D">
          468 -9 27 593 40 -40 81 hstemhm
          99 44 545 37 hintmask 10111000
          33 callgsubr
          -33 -14 -15 -29 -5 2 callsubr
          -29 -112 -31 -216 -146 vvcurveto
          -38 2 -34 5 -25 vhcurveto
          1 -3 -1 0 -2 hhcurveto
          -6 -1 -4 -4 -24 42 -18 69 178 343 118 235 hvcurveto
          hintmask 11011000
          221 -259 86 -219 vhcurveto
          -26 hlineto
          7 20 1 1 4 9 rrcurveto
          -89 -576 rmoveto
          -1 17 0 17 18 vvcurveto
          149 26 165 42 142 vhcurveto
          35 hlineto
          83 359 -15 -221 -6 callgsubr
        </CharString>
        <CharString name="Delta">
          145 -7 26 -21 34 hstem
          392 36 vstem
          428 -2 rmoveto
          -32 141 -30 247 -9 142 rrcurveto
          5 -2 2 -2 -11 -34 -66 -10 -6 vhcurveto
          -137 -223 -48 -78 -56 -95 -36 -65 rlinecurve
          2 64 65 0 60 hhcurveto
          120 94 -2 0 hvcurveto
          -44 35 rmoveto
          -10 -68 -3 -76 hhcurveto
          -42 -118 0 7 2 2 4 1 3 hvcurveto
          61 119 112 179 78 126 rrcurveto
          26 callgsubr
          2 2 hhcurveto
          6 44 -390 -52 5 hvcurveto
          endchar
        </CharString>
        <CharString name="E">
          270 -1 31 -9 -21 314 31 279 24 -24 68 hstemhm
          89 52 hintmask 10110100
          519 649 -36 callsubr
          12 10 11 10 vvcurveto
          hintmask 10101100
          -39 callsubr
          vhcurveto
          hintmask 10110100
          -28 -22 -7 -37 -7 hvcurveto
          -73 callgsubr
          -100 -11 -104 -51 vvcurveto
          -8 0 -7 1 -5 -35 callsubr
          hintmask 01110100
          -52 callsubr
          hintmask 10110100
          -39 callgsubr
          16 -1 22 24 vvcurveto
          73 10 96 5 52 -92 callgsubr
          endchar
        </CharString>
        <CharString name="Eacute">
          -15 callsubr
          151 -84 callsubr
          -69 166 -99 callgsubr
        </CharString>
        <CharString name="Ecircumflex">
          -15 callsubr
          6 25 callgsubr
          89 51 hintmask 10110111
          515 -48 callsubr
          hintmask 10101011
          -39 callsubr
          vhcurveto
          hintmask 10110111
          -70 callgsubr
          hintmask 01110111
          -52 callsubr
          hintmask 10110111
          -96 callsubr
          -81 65 -103 callgsubr
        </CharString>
        <CharString name="Edieresis">
          270 289 4 callgsubr
          515 -48 callsubr
          7 -7 3 -8 43 callsubr
          vhcurveto
          -82 callsubr
          -52 callsubr
          -96 callsubr
          -53 195 -106 callsubr
        </CharString>
        <CharString name="Egrave">
          -15 callsubr
          158 -84 callsubr
          -256 173 -99 callsubr
        </CharString>
        <CharString name="Eth">
          468 -9 27 209 37 342 38 -38 86 hstemhm
          98 44 546 37 hintmask 11011100
          33 callgsubr
          -36 -13 -18 -34 -6 2 callsubr
          -21 -82 -22 -136 -10 -123 rrcurveto
          1 -14 -18 1 -16 hhcurveto
          -33 -10 -6 -11 -12 19 -8 17 16 18 0 1 19 hvcurveto
          -2 -30 -1 -29 -27 vvcurveto
          -40 2 -35 6 -27 vhcurveto
          1 -3 -1 0 -2 hhcurveto
          -6 -1 -4 -4 -24 42 -18 69 178 343 118 235 hvcurveto
          hintmask 11101100
          214 -264 86 -199 -15 -15 0 -1 -14 vhcurveto
          7 20 4 9 4 9 rrcurveto
          -89 -576 rmoveto
          -1 20 -1 21 21 vvcurveto
          21 1 21 1 22 vhcurveto
          62 6 57 8 11 vvcurveto
          7 -87 -1 -30 vhcurveto
          8 116 22 118 32 109 rrcurveto
          1 14 13 0 12 hhcurveto
          209 232 -69 -160 -6 callgsubr
        </CharString>
        <CharString name="Euro">
          377 120 47 -45 35 45 35 380 18 hstem
          423 230 rmoveto
          11 -19 -50 1 -26 hhcurveto
          -13 -74 2 1 -63 hvcurveto
          16 vlineto
          37 3 37 8 37 vhcurveto
          244 hlineto
          26 11 4 5 21 -121 -2 -152 2 hvcurveto
          129 38 96 102 136 hhcurveto
          112 49 -56 -22 14 hvcurveto
          -1 1 0 -1 1 hhcurveto
          3 1 12 13 57 -71 23 -112 -166 -112 -111 -145 -41 hvcurveto
          -18 -26 -1 -20 23 callgsubr
          72 hlineto
          -7 -33 -3 -33 -34 vvcurveto
          -26 -23 vlineto
          -18 -26 -1 -21 23 callgsubr
          107 hlineto
          -144 18 92 -88 160 hhcurveto
          75 171 32 111 6 -1 4 -2 -2 -2 -1 -4 -2 hvcurveto
          -35 -22 -78 -90 -142 hhcurveto
          -134 -68 91 118 -14 hvcurveto
          211 -9 callsubr
        </CharString>
        <CharString name="F">
          233 13 -21 323 31 272 32 -32 74 hstemhm
          87 50 hintmask 11101000
          447 349 rmoveto
          -2 -41 -170 -1 -78 hhcurveto
          14 97 19 102 24 75 -86 callgsubr
          -30 callgsubr
          12 9 10 10 vvcurveto
          hintmask 11011000
          -39 callsubr
          -27 -22 -6 -37 -7 vhcurveto
          -55 callsubr
          -22 -93 -14 -93 -11 -93 rrcurveto
          -14 -1 -12 -14 -9 vvcurveto
          -41 callsubr
          vhcurveto
          12 hlineto
          -10 -96 -13 -111 -8 -94 rrcurveto
          -30 callsubr
          9 -6 1 vhcurveto
          37 12 109 13 105 vhcurveto
          261 hlineto
          -82 callgsubr
          endchar
        </CharString>
        <CharString name="G">
          473 -16 23 -6 -21 268 34 192 184 -25 25 hstemhm
          59 49 498 48 -27 43 hintmask 10101101
          737 282 rmoveto
          -2 -50 -233 -1 -22 hhcurveto
          -72 callsubr
          231 hlineto
          -4 -26 -4 -28 -6 -28 rrcurveto
          -58 -29 -92 -101 -172 16 callgsubr
          186 134 176 237 78 70 -27 -59 hvcurveto
          -21 -20 -27 -14 vvcurveto
          hintmask 10110101
          -7 5 -4 14 24 20 21 41 105 -107 17 -86 -272 -146 -181 -204 -175 100 -114 189 94 117 29 84 59 vhcurveto
          hintmask 01110110
          -6 -33 -6 -34 -26 vvcurveto
          -16 9 -8 10 14 18 16 26 vhcurveto
          12 -3 12 15 vvcurveto
          108 20 44 11 35 vhcurveto
          20 hlineto
          -82 callgsubr
          endchar
        </CharString>
        <CharString name="H">
          382 13 -21 308 33 324 -20 hstem
          80 41 vstem
          569 334 rmoveto
          -5 -9 -1 -9 hhcurveto
          17 121 27 111 35 80 rrcurveto
          -43 callsubr
          -30 vlineto
          -12 -68 -9 -68 -8 -70 rrcurveto
          -1 -106 -185 -1 -68 hhcurveto
          20 118 27 112 37 84 rrcurveto
          2 vlineto
          -39 callsubr
          -61 -4 -69 -39 -8 vhcurveto
          -15 -72 -12 -74 -9 -72 rrcurveto
          -12 -2 -11 -13 -9 vvcurveto
          -41 callsubr
          vhcurveto
          10 hlineto
          -12 -100 -12 -100 -88 vvcurveto
          -13 10 -7 11 12 15 9 19 vhcurveto
          10 -7 6 20 vvcurveto
          51 7 93 15 100 vhcurveto
          359 hlineto
          -10 -93 -9 -95 -9 -98 rrcurveto
          -14 callgsubr
          41 6 102 14 111 vhcurveto
          23 5 10 14 8 -53 callsubr
          vhcurveto
          endchar
        </CharString>
        <CharString name="I">
          151 0 31 -18 -21 626 32 -32 53 hstemhm
          hintmask 10100000
          320 616 -57 callgsubr
          6 9 rlineto
          2 vlineto
          hintmask 10010000
          -39 callsubr
          -35 -17 -8 -14 -6 -64 callgsubr
          -19 -186 -50 callgsubr
          hintmask 01100000
          -13 callgsubr
          hintmask 10100000
          8 8 3 5 6 hvcurveto
          118 hlineto
          -82 callgsubr
          -23 -1 -60 -1 -61 -1 rrcurveto
          -2 3 -1 5 8 vvcurveto
          78 32 330 57 161 vhcurveto
          endchar
        </CharString>
        <CharString name="Iacute">
          -78 callsubr
          92 186 -99 callgsubr
        </CharString>
        <CharString name="Icircumflex">
          -1 callgsubr
          6 25 callgsubr
          hintmask 10101100
          -60 callsubr
          hintmask 10010100
          -80 callsubr
          hintmask 01101100
          -13 callgsubr
          hintmask 10101100
          -68 callgsubr
          79 78 -103 callgsubr
        </CharString>
        <CharString name="Idieresis">
          151 256 4 callgsubr
          -60 callsubr
          -80 callsubr
          -13 callgsubr
          -68 callgsubr
          98 208 -106 callsubr
        </CharString>
        <CharString name="Igrave">
          -78 callsubr
          -97 186 -99 callsubr
        </CharString>
        <CharString name="J">
          209 -33 38 613 31 -31 59 hstemhm
          hintmask 11000000
          253 108 rmoveto
          -45 -8 -13 -58 -45 -85 -43 162 -11 hhcurveto
          -5 -4 -7 -12 -56 90 -125 73 99 9 213 166 17 hvcurveto
          13 127 22 95 9 39 3 11 rcurveline
          89 hlineto
          -31 callsubr
          -19 -43 -1 -46 hhcurveto
          7 15 rlineto
          2 vlineto
          hintmask 10100000
          -39 callsubr
          vhcurveto
          hintmask 11000000
          -21 -19 -11 -17 -9 hvcurveto
          -114 -76 callgsubr
          120 hlineto
          -4 -25 -2 -14 -8 vvcurveto
          -6 0 -3 2 -1 vhcurveto
          -15 -167 -17 -112 -30 -174 rrcurveto
          endchar
        </CharString>
        <CharString name="K">
          328 -26 32 7 -21 695 -20 hstemhm
          564 26 hintmask 10110000
          164 240 rmoveto
          -125 109 149 -141 -2 callsubr
          -50 -10 -54 -38 vhcurveto
          -85 7 -149 161 -102 108 rrcurveto
          -7 7 -5 8 6 vvcurveto
          8 8 8 20 6 vhcurveto
          123 36 340 254 61 vvcurveto
          8 -6 3 -8 -19 -31 -17 -14 -2 0 -1 2 -2 vhcurveto
          -35 -30 -137 -175 -217 -85 -13 -5 -18 -2 -18 -5 16 116 26 103 34 77 rrcurveto
          -43 callsubr
          -30 vlineto
          -11 -64 -9 -65 -8 -66 rrcurveto
          -8 hlineto
          -13 -11 2 5 -5 hvcurveto
          -5 -2 -2 -3 -10 18 -21 20 -22 hvcurveto
          -10 -91 -8 -92 -9 -96 rrcurveto
          hintmask 01110000
          -14 callgsubr
          35 4 81 11 93 vhcurveto
          6 -6 6 -6 5 -4 rrcurveto
          endchar
        </CharString>
        <CharString name="L">
          -24 callgsubr
          -27 -159 -16 -166 -16 -175 rrcurveto
          -48 callgsubr
          78 23 301 57 161 vhcurveto
          endchar
        </CharString>
        <CharString name="Lslash">
          -24 callgsubr
          -18 -106 -13 -109 -12 -112 rrcurveto
          -44 -10 -50 -12 -22 23 callsubr
          55 18 -5 -45 -4 -46 -4 -47 rlinecurve
          -48 callgsubr
          27 2 54 6 65 vhcurveto
          62 23 57 28 20 callsubr
          -40 -13 -22 -6 -39 -12 12 119 23 147 34 97 rrcurveto
          endchar
        </CharString>
        <CharString name="M">
          448 13 -21 147 48 470 -20 hstem
          621 31 vstem
          693 587 rmoveto
          3 14 15 31 14 vvcurveto
          8 -8 3 -8 -53 -16 -39 -43 vhcurveto
          -9 3 -12 -10 vvcurveto
          -5 vlineto
          -3 -30 rlineto
          -236 -101 -113 -86 -56 hhcurveto
          -103 -42 211 159 -7 hvcurveto
          12 30 rlineto
          5 13 23 36 12 vvcurveto
          7 -7 2 -7 -5 -5 -1 -1 -3 vhcurveto
          -7 -2 rlineto
          1 -3 -3 0 -4 hhcurveto
          -18 -26 -13 -60 -11 2 -8 5 -4 hvcurveto
          -2 -4 -1 -4 -1 vvcurveto
          -51 -182 -32 -191 -22 -162 rrcurveto
          -5 vlineto
          -11 6 -6 8 8 15 10 21 vhcurveto
          9 -4 7 17 vvcurveto
          6 80 32 180 47 151 rrcurveto
          -143 17 50 -185 103 hhcurveto
          61 109 79 226 108 hvcurveto
          -8 -138 -2 -143 -1 -152 rrcurveto
          -12 12 -7 13 15 13 9 19 9 -6 -2 -2 20 vhcurveto
          -3 21 0 40 49 vvcurveto
          125 8 189 33 116 vhcurveto
          endchar
        </CharString>
        <CharString name="N">
          373 12 -21 30 -21 656 -20 hstemhm
          86 41 31 57 hintmask 01111000
          86 38 rmoveto
          -19 15 -19 13 11 3 12 27 vhcurveto
          16 -1 18 14 vvcurveto
          89 26 231 42 140 vhcurveto
          1 -39 9 -37 53 -61 55 -63 129 -122 47 -63 11 -16 12 -26 8 -25 -7 -82 rcurveline
          hintmask 10111000
          -14 7 -8 11 9 11 8 15 3 vhcurveto
          6 vlineto
          5 13 5 20 23 vvcurveto
          19 -3 22 -8 22 vhcurveto
          12 172 32 209 54 124 rrcurveto
          2 vlineto
          -39 callsubr
          -56 -6 -44 -44 vhcurveto
          -30 vlineto
          -12 -68 -10 -68 -7 -70 -16 -147 rcurveline
          -9 12 rlineto
          -113 140 -192 138 101 12 26 39 20 vvcurveto
          6 -10 3 -13 -36 -24 -26 -61 -6 0 -6 1 -6 vhcurveto
          -19 -109 -48 -280 -6 -124 rrcurveto
          endchar
        </CharString>
        <CharString name="Ntilde">
          401 707 27 hstem
          640 -11 callsubr
          -48 -6 -75 -33 -7 vhcurveto
          -25 -120 -19 -122 -13 -117 -56 138 -117 223 -103 84 rrcurveto
          5 vlineto
          13 -8 8 -8 -4 -5 -2 -5 -3 vhcurveto
          8 -16 -15 6 -14 hhcurveto
          -76 -39 -95 -140 -22 4 -17 8 hvcurveto
          7 4 243 83 hhcurveto
          9 17 -5 -11 17 hvcurveto
          -43 -153 -47 -178 -20 -176 rrcurveto
          -1 -7 -5 -40 -27 vvcurveto
          -31 15 -17 23 5 4 2 6 1 vhcurveto
          -3 25 -1 37 16 vvcurveto
          171 59 251 33 95 vhcurveto
          2 6 132 -135 85 -182 69 -170 rlinecurve
          -3 -35 -4 -36 -32 vvcurveto
          -12 7 -7 8 20 16 33 35 vhcurveto
          -1 11 0 13 -4 15 -12 41 rcurveline
          12 127 33 193 45 127 rrcurveto
          -98 212 -91 callgsubr
        </CharString>
        <CharString name="O">
          11 callsubr
          -104 callgsubr
          endchar
        </CharString>
        <CharString name="OE">
          795 662 -20 hstem
          1054 -48 callsubr
          7 -7 3 -8 43 callsubr
          vhcurveto
          -55 callsubr
          -5 -19 -5 -25 -4 -29 -37 40 -51 28 -63 9 rrcurveto
          -95 callsubr
          104 107 40 75 77 vhcurveto
          -1 0 callsubr
          -6 1 -5 -4 vvcurveto
          -16 -3 -24 -20 -9 vvcurveto
          -7 248 2 52 vhcurveto
          -52 callsubr
          -96 callsubr
          -801 -66 rmoveto
          -86 callsubr
          68 -9 54 -42 31 -58 -15 -105 -13 -132 -7 -100 rrcurveto
          -80 -57 -130 -62 -97 hhcurveto
          -59 callsubr
          hvcurveto
          -45 callgsubr
        </CharString>
        <CharString name="Oacute">
          -97 callgsubr
          315 239 -99 callgsubr
        </CharString>
        <CharString name="Ocircumflex">
          -97 callgsubr
          314 160 -83 callsubr
          90 -8 3 -14 -3 -102 -97 -90 callgsubr
        </CharString>
        <CharString name="Odieresis">
          489 412 4 callgsubr
          -106 callgsubr
          322 261 -106 callsubr
        </CharString>
        <CharString name="Ograve">
          -97 callgsubr
          110 239 -99 callsubr
        </CharString>
        <CharString name="Omega">
          371 160 38 hstem
          43 35 rmoveto
          -13 -1 -7 -15 -10 vvcurveto
          -7 14 -2 20 vhcurveto
          51 65 -1 43 hhcurveto
          22 6 9 20 4 -3 4 -12 10 hvcurveto
          181 -132 179 354 194 hhcurveto
          218 -145 -467 -75 -157 hvcurveto
          -20 -10 2 -14 -1 -7 rrcurveto
          -7 20 -1 19 60 93 -2 3 56 vhcurveto
          7 33 37 -36 -39 -125 -2 -34 hhcurveto
          111 75 94 156 162 vvcurveto
          100 -44 76 -113 -180 -149 -188 -192 -75 23 -69 41 -43 vhcurveto
          -41 -2 -75 3 -45 -4 rrcurveto
          endchar
        </CharString>
        <CharString name="Oslash">
          475 -70 28 670 31 hstem
          749 371 rmoveto
          116 -52 70 -84 35 vhcurveto
          26 30 52 50 17 vvcurveto
          9 -6 9 -8 -10 -39 -43 -59 -52 vhcurveto
          -14 4 -15 2 -16 3 rrcurveto
          -93 callsubr
          -89 33 -79 70 -49 vhcurveto
          -24 -46 -14 -41 -31 vvcurveto
          42 callgsubr
          vhcurveto
          4 -14 7 18 vvcurveto
          21 12 30 22 39 vhcurveto
          -21 41 51 -12 62 hhcurveto
          -27 callgsubr
          hvcurveto
          -155 198 rmoveto
          66 -38 43 -75 -88 vvcurveto
          -229 -192 -133 -156 -59 -48 14 25 -37 vhcurveto
          81 138 164 222 138 164 rrcurveto
          -341 hmoveto
          -86 callsubr
          13 -2 13 -3 12 -4 -104 -120 -179 -239 -92 -160 rrcurveto
          -51 48 -23 71 77 vvcurveto
          110 40 120 103 77 vhcurveto
          -45 callgsubr
        </CharString>
        <CharString name="Otilde">
          489 709 27 hstem
          -106 callgsubr
          344 217 -91 callgsubr
        </CharString>
        <CharString name="P">
          216 19 -21 280 25 325 64 hstem
          77 44 333 44 vstem
          15 callgsubr
          81 8 94 6 34 vhcurveto
          -3 6 24 -2 32 hhcurveto
          42 55 5 16 46 hvcurveto
          63 22 95 81 91 vvcurveto
          123 -188 25 -87 8 vhcurveto
          5 16 4 -1 7 16 rrcurveto
          9 -7 3 -9 -34 -25 -16 -23 -4 -17 callgsubr
          -31 -147 -41 -322 -91 vvcurveto
          27 callsubr
          331 501 rmoveto
          2 -9 0 -9 -8 vvcurveto
          -102 -120 -68 5 callsubr
          43 209 13 callgsubr
        </CharString>
        <CharString name="Q">
          489 -242 28 196 24 118 28 445 24 54 30 hstem
          62 48 413 31 149 46 vstem
          -96 callgsubr
          25 26 3 4 25 vhcurveto
          -102 66 58 -129 108 hhcurveto
          48 64 31 78 7 -1 9 -4 hvcurveto
          -12 -2 -97 -69 hhcurveto
          -90 -79 131 81 -51 hvcurveto
          155 43 134 132 198 vvcurveto
          -496 198 -84 callgsubr
          -186 -126 -122 -131 -40 vhcurveto
          60 -41 -51 72 -56 hhcurveto
          -32 -47 -33 -28 -1 -20 callsubr
          hvcurveto
          16 8 35 28 hhcurveto
          48 50 -58 -55 39 hvcurveto
          -4 -19 -18 -1 -18 hhcurveto
          -59 callsubr
          hvcurveto
          -45 callgsubr
        </CharString>
        <CharString name="R">
          277 -26 32 -32 197 -152 -21 281 24 323 66 hstemhm
          77 44 335 45 37 26 hintmask 01011111
          15 callgsubr
          62 4 69 5 44 vhcurveto
          28 -25 rlineto
          -105 99 139 -145 -2 callsubr
          hintmask 10011111
          -50 -10 -54 -38 vhcurveto
          -85 7 -140 156 -92 90 rrcurveto
          -7 7 -3 4 4 vvcurveto
          4 5 1 12 vhcurveto
          11 hlineto
          43 61 5 24 61 hvcurveto
          62 24 83 77 80 vvcurveto
          125 -189 25 -87 8 vhcurveto
          5 16 2 1 7 16 rrcurveto
          9 -7 3 -9 -35 -21 -16 -25 -5 -17 callgsubr
          -14 -63 -21 -107 -11 -91 rrcurveto
          -11 -8 2 4 -4 hvcurveto
          -4 -2 -2 -2 -7 11 -13 14 -15 hvcurveto
          -14 -109 -10 -107 -48 vvcurveto
          hintmask 00111111
          27 callsubr
          333 499 rmoveto
          2 -9 0 -9 -8 vvcurveto
          -101 -122 -67 5 callsubr
          45 207 13 callgsubr
        </CharString>
        <CharString name="S">
          219 -17 32 -32 113 529 37 hstemhm
          90 41 272 54 -3 35 hintmask 10110100
          132 464 16 callsubr
          100 154 52 73 54 42 -16 -61 vhcurveto
          -20 10 callgsubr
          45 -15 54 -85 -154 -145 -103 -114 vhcurveto
          hintmask 10111000
          -177 313 29 -129 vvcurveto
          -93 -126 -60 -89 -51 -32 7 35 -21 vhcurveto
          hintmask 01111000
          19 -11 4 20 -11 hhcurveto
          -23 -4 -24 -11 hvcurveto
          -7 vlineto
          -33 16 -38 94 163 145 111 105 130 -304 -34 -21 169 vhcurveto
          endchar
        </CharString>
        <CharString name="Scaron">
          219 -20 32 -32 114 534 37 164 -20 21 -20 hstemhm
          88 42 275 54 -3 35 hintmask 10110101
          131 465 -26 callsubr
          vhcurveto
          hintmask 10110110
          1 callsubr
          hintmask 01110110
          5 callgsubr
          164 147 112 106 34 callsubr
          183 363 -72 callgsubr
          hintmask 10101110
          -49 callsubr
        </CharString>
        <CharString name="T">
          307 13 -21 626 31 9 -20 hstemhm
          hintmask 10100000
          591 652 rmoveto
          -1 -22 -100 -1 -107 hhcurveto
          7 -1 -8 1 -7 hhcurveto
          hintmask 11000000
          -15 -13 -4 -5 -8 hvcurveto
          -255 -76 callgsubr
          244 hlineto
          -5 -13 -5 -19 -15 vvcurveto
          -30 vlineto
          -34 -176 -7 -166 -17 -185 rrcurveto
          -14 callgsubr
          88 29 323 58 160 vhcurveto
          210 hlineto
          -82 callgsubr
          endchar
        </CharString>
        <CharString name="Thorn">
          -9 -65 49 155 54 vstem
          240 583 rmoveto
          38 91 rlineto
          4 9 2 8 6 vvcurveto
          14 -8 6 -10 -7 -9 -4 -7 -7 vhcurveto
          -12 -12 1 7 -45 -121 rrcurveto
          -1 -5 -41 -4 -19 -11 30 3 -4 vvcurveto
          -9 -35 -63 -196 -34 -104 rrcurveto
          -21 -13 -9 -19 -18 vvcurveto
          -8 2 -8 3 -7 vhcurveto
          -33 -92 -75 -212 -46 vvcurveto
          -25 14 -10 14 33 11 40 12 vhcurveto
          13 -7 8 15 vvcurveto
          27 38 157 38 75 vhcurveto
          -24 29 44 -9 40 hhcurveto
          121 79 86 122 143 -74 123 -76 48 hvcurveto
          89 -254 rmoveto
          3 -18 1 -18 -18 vvcurveto
          -94 -41 -94 -103 -33 -36 10 27 -26 vhcurveto
          69 229 44 133 20 45 22 -19 61 -56 19 -127 rrcurveto
          endchar
        </CharString>
        <CharString name="U">
          17 callgsubr
          674 -92 callsubr
          endchar
        </CharString>
        <CharString name="Uacute">
          17 callgsubr
          858 -92 callsubr
          380 261 -99 callgsubr
        </CharString>
        <CharString name="Ucircumflex">
          17 callgsubr
          706 25 callgsubr
          56 49 hintmask 10111000
          -73 callsubr
          hintmask 01111000
          -79 callgsubr
          hintmask 10111000
          -85 callsubr
          373 153 -103 callgsubr
        </CharString>
        <CharString name="Udieresis">
          339 335 4 callgsubr
          -73 callsubr
          -79 callgsubr
          -85 callsubr
          374 283 -106 callsubr
        </CharString>
        <CharString name="Ugrave">
          17 callgsubr
          858 -92 callsubr
          158 261 -99 callsubr
        </CharString>
        <CharString name="V">
          256 -3 42 660 -20 hstem
          68 51 414 44 vstem
          96 542 rmoveto
          -17 -72 -11 -94 -90 vvcurveto
          -151 31 -138 85 51 84 50 178 106 vhcurveto
          60 112 92 252 75 vvcurveto
          20 -5 15 -16 -23 -5 -10 -5 vhcurveto
          -8 5 -12 -22 vvcurveto
          -78 -62 -196 -70 -125 vhcurveto
          -160 -91 -62 -44 -43 hhcurveto
          -68 -18 106 146 70 27 233 41 50 hvcurveto
          2 3 1 4 callsubr
          9 -10 7 -15 -25 -51 -35 -77 -8 2 -6 5 -1 vhcurveto
          endchar
        </CharString>
        <CharString name="W">
          610 -1 40 -18 -21 669 46 callsubr
          316 48 357 48 hintmask 10111100
          755 232 rmoveto
          47 95 72 192 91 vvcurveto
          33 -7 26 -23 -17 -3 -9 -9 vhcurveto
          -8 2 -11 -19 vvcurveto
          -90 -42 -158 -63 -128 vhcurveto
          -147 -72 -53 -51 -44 hhcurveto
          -59 -24 104 120 138 32 159 42 42 hvcurveto
          3 26 callgsubr
          3 vvcurveto
          9 -12 9 -17 -20 -45 -22 -46 -7 2 -5 7 -2 vhcurveto
          -12 -40 -9 -47 -7 -50 rrcurveto
          -271 -92 -125 -99 -42 -89 callsubr
          -44 callsubr
          49 130 68 254 94 vhcurveto
          -2 -24 -1 -25 -23 vvcurveto
          hintmask 01111100
          -135 29 -114 81 52 92 66 166 80 vhcurveto
          endchar
        </CharString>
        <CharString name="X">
          362 -7 35 -23 -21 680 -20 hstemhm
          151 63 358 24 hintmask 01111000
          227 628 rmoveto
          0 17 3 6 vvcurveto
          7 -29 10 -15 -17 -32 -3 -26 -10 2 -13 5 -13 vhcurveto
          37 -102 31 -88 39 -91 -85 -77 -143 -141 -34 -82 rrcurveto
          -2 -4 -1 -4 -3 vvcurveto
          -7 5 -6 6 6 7 5 12 5 vhcurveto
          20 47 157 163 72 67 11 -22 rcurveline
          hintmask 10111000
          -138 63 68 -125 57 hhcurveto
          47 84 41 153 37 hvcurveto
          1 3 0 4 3 vvcurveto
          8 -3 7 -4 vhcurveto
          -10 -46 -184 -71 hhcurveto
          -56 -85 156 127 -57 hvcurveto
          109 98 173 141 79 vvcurveto
          31 -11 4 -7 -5 -1 -5 -5 vhcurveto
          -12 vlineto
          -69 -188 -158 -84 -75 vhcurveto
          -25 55 -61 144 61 vvcurveto
          16 4 10 9 2 vhcurveto
          endchar
        </CharString>
        <CharString name="Y">
          177 21 -21 667 -20 hstem
          30 63 -67 callsubr
          endchar
        </CharString>
        <CharString name="Yacute">
          213 21 -21 697 -20 143 -20 hstem
          30 63 vstem
          95 69 rmoveto
          -6 -11 -22 -38 -10 vvcurveto
          46 callgsubr
          69 6 47 66 5 vhcurveto
          3 44 17 89 13 38 -67 callgsubr
          34 24 -11 19 vvcurveto
          -22 callsubr
          vhcurveto
          -8 callgsubr
          31 callgsubr
          -6 vvcurveto
          -74 -30 -75 -20 -43 vhcurveto
          299 710 rmoveto
          -53 callgsubr
          14 -64 callsubr
          -58 -88 callsubr
        </CharString>
        <CharString name="Ydieresis">
          213 219 53 99 53 -67 callsubr
          289 761 -106 callsubr
        </CharString>
        <CharString name="Z">
          249 -18 -21 55 -21 49 38 539 31 hstem
          505 28 vstem
          538 648 -28 callgsubr
          -54 -458 -402 -20 -89 hvcurveto
          -2 -10 -1 -8 -8 vvcurveto
          -31 10 -8 1 -32 callsubr
          29 94 408 355 70 109 rrcurveto
          3 5 2 7 7 vvcurveto
          18 -11 20 -16 4 vhcurveto
          endchar
        </CharString>
        <CharString name="Zcaron">
          292 -18 -21 55 -21 49 38 548 31 157 -20 21 -20 hstemhm
          509 24 -24 60 hintmask 11111010
          542 657 -28 callgsubr
          -64 -469 -400 -13 -90 hvcurveto
          -3 -10 -1 -9 -8 vvcurveto
          -30 12 -8 0 -32 callsubr
          16 51 139 135 123 123 rrcurveto
          hintmask 11111001
          112 112 126 123 42 vvcurveto
          18 -11 20 -16 4 vhcurveto
          -236 160 -72 callgsubr
          hintmask 11110110
          -49 callsubr
        </CharString>
        <CharString name="a">
          -103 callsubr
          endchar
        </CharString>
        <CharString name="aacute">
          -103 callsubr
          92 176 -99 callgsubr
        </CharString>
        <CharString name="acircumflex">
          -103 callsubr
          117 290 -103 callgsubr
        </CharString>
        <CharString name="acute">
          40 callgsubr
          274 614 -99 callgsubr
        </CharString>
        <CharString name="adieresis">
          -14 callsubr
          hstem
          201 4 callgsubr
          -107 callsubr
          96 201 -106 callsubr
        </CharString>
        <CharString name="ae">
          163 12 -20 200 27 152 -20 30 -20 hstemhm
          hintmask 11010000
          436 -33 callgsubr
          -11 -30 -4 -4 -13 hvcurveto
          10 -1 -7 7 -16 -16 -1 -16 -9 -11 -5 callgsubr
          hintmask 11100000
          -79 callsubr
          57 95 129 55 39 hvcurveto
          -13 -40 -15 -48 -36 -87 callsubr
          -170 35 -95 callgsubr
          134 -83 -11 callgsubr
        </CharString>
        <CharString name="agrave">
          -103 callsubr
          -90 200 -99 callsubr
        </CharString>
        <CharString name="ampersand">
          555 388 15 230 -20 hstem
          41 65 8 48 208 23 188 56 17 64 vstem
          114 387 rmoveto
          -51 44 -32 85 -7 vhcurveto
          -132 -45 -69 -85 -72 vvcurveto
          -69 63 -57 132 171 219 102 118 37 -25 33 -26 12 vhcurveto
          -10 37 49 -24 88 hhcurveto
          35 32 10 19 3 -2 2 -5 hvcurveto
          -8 -11 -8 -20 -86 -81 47 -90 hhcurveto
          -65 -83 -25 -70 -22 18 -14 9 4 3 2 5 hvcurveto
          11 -6 13 10 vvcurveto
          40 45 16 50 61 31 -36 -46 -85 -105 -115 -206 -110 -54 49 60 71 74 85 145 39 vhcurveto
          47 4 18 16 11 vvcurveto
          7 -7 5 -11 vhcurveto
          -17 -37 -14 -39 hhcurveto
          -57 -60 16 44 152 233 74 131 77 52 -26 -54 -66 -91 -64 -57 -8 -5 -5 -4 -3 3 -3 6 67 148 56 99 60 -76 30 -99 -168 -261 -80 -166 hvcurveto
          endchar
        </CharString>
        <CharString name="apple">
          249 138 133 62 12 91 11 hstem
          48 232 vstem
          313 525 rmoveto
          -2 -9 -9 -2 -9 -35 -48 25 -16 hhcurveto
          -37 -102 -35 -145 -119 83 -135 63 hvcurveto
          54 -3 25 43 43 -1 -25 54 hhcurveto
          41 65 73 76 25 hvcurveto
          -47 18 -30 45 53 vvcurveto
          59 33 36 29 16 vhcurveto
          48 -30 -46 11 -28 hhcurveto
          -25 -20 -11 -11 -38 hvcurveto
          -21 13 rmoveto
          19 35 4 41 27 hvcurveto
          19 28 7 30 19 vvcurveto
          11 -1 7 -7 -47 -54 -71 -55 -6 1 -5 1 -3 vhcurveto
          endchar
        </CharString>
        <CharString name="approxequal">
          93 143 31 -25 -21 39 33 43 31 -7 33 4 -20 hstemhm
          hintmask 01110100
          28 155 -40 callsubr
          hintmask 01101000
          19 callgsubr
          34 100 -40 callsubr
          hintmask 10001000
          19 callgsubr
          endchar
        </CharString>
        <CharString name="aring">
          -14 callsubr
          72 45 callgsubr
          225 37 72 24 vstem
          -107 callsubr
          92 181 -28 callsubr
        </CharString>
        <CharString name="asciicircum">
          27 474 -21 22 -21 105 -20 hstemhm
          hintmask 01100000
          273 455 rmoveto
          -1 1 2 0 1 hhcurveto
          3 1 1 3 2 -1 3 -3 3 hvcurveto
          -12 12 -87 78 -11 3 -15 -3 -93 -84 -6 -9 rrcurveto
          -2 -3 -1 -2 -2 vvcurveto
          hintmask 10100000
          -2 1 -1 2 3 85 57 17 21 vhcurveto
          22 -17 69 -44 20 -11 rrcurveto
          endchar
        </CharString>
        <CharString name="asciitilde">
          -3 437 33 -11 -21 26 27 hstemhm
          hintmask 01100000
          251 487 rmoveto
          3 -4 1 -2 vhcurveto
          hintmask 10000000
          -13 -11 -13 -8 -18 hhcurveto
          hintmask 01100000
          -81 callsubr
          hhcurveto
          hintmask 10000000
          -47 callsubr
        </CharString>
        <CharString name="asterisk">
          -104 508 181 hstem
          177 652 rmoveto
          3 -3 -8 callsubr
          hhcurveto
          -16 -23 -23 -14 -14 hvcurveto
          3 12 4 15 14 vvcurveto
          15 -4 12 -14 2 vhcurveto
          -15 -1 -4 -13 -16 vvcurveto
          -14 3 -16 3 -11 vhcurveto
          15 -12 -23 21 -18 hhcurveto
          -7 -9 -4 -10 -20 39 -14 21 -8 hvcurveto
          -21 -5 -39 -12 -20 vvcurveto
          -12 10 -4 7 18 21 19 13 13 vhcurveto
          -3 -11 -4 -16 -14 vvcurveto
          -16 5 -12 16 14 5 11 14 14 -5 17 -3 13 vhcurveto
          -14 13 21 -19 16 hhcurveto
          8 8 5 10 21 -39 13 -20 6 hvcurveto
          18 7 42 18 18 35 callsubr
          4 -3 3 vhcurveto
          endchar
        </CharString>
        <CharString name="at">
          497 -2 28 70 46 514 23 hstem
          9 40 144 234 34 62 175 43 vstem
          330 651 rmoveto
          -26 hlineto
          -66 -106 -4 -20 -4 2 -4 23 hvcurveto
          28 50 4 15 hhcurveto
          -120 -64 -121 -118 -164 vvcurveto
          -156 116 -123 174 205 237 159 180 35 -9 36 -20 36 vhcurveto
          11 29 7 28 26 vvcurveto
          117 -99 35 -111 -65 -70 -12 -16 -55 vhcurveto
          359 -256 rmoveto
          6 -19 3 -19 -18 vvcurveto
          -171 -249 -142 -177 -150 -73 113 120 150 124 158 150 49 vhcurveto
          135 -6 145 -48 67 -125 rrcurveto
          -84 -31 -147 -202 -50 hhcurveto
          -11 -7 10 21 18 21 108 36 100 hvcurveto
          2 5 15 3 1 5 rrcurveto
          7 16 15 28 20 vvcurveto
          12 -90 callsubr
          56 97 -54 callgsubr
          -27 5 14 -12 19 hhcurveto
          76 162 179 103 39 hvcurveto
          -238 76 -85 callgsubr
          108 199 31 8 hvcurveto
          3 12 9 1 9 hhcurveto
          18 1 13 -6 14 1 rrcurveto
          233 12 rmoveto
          -53 91 -114 51 -121 13 rrcurveto
          11 44 48 7 44 hhcurveto
          87 71 -29 -95 -15 -2 -17 -4 -17 hvcurveto
          endchar
        </CharString>
        <CharString name="atilde">
          -14 callsubr
          133 27 hstem
          -107 callsubr
          274 225 -91 callgsubr
        </CharString>
        <CharString name="b">
          -15 655 -20 hstem
          310 341 rmoveto
          7 vlineto
          26 -8 11 -12 -47 -115 -150 -48 -32 vhcurveto
          50 122 102 276 15 55 rrcurveto
          11 -3 4 -7 vhcurveto
          -15 -27 -24 -1 hhcurveto
          -59 -203 -60 -159 -52 -135 -3 -8 -9 3 -5 -14 rrcurveto
          -15 -38 -9 -30 -8 vvcurveto
          -23 20 -17 11 3 2 1 2 1 vhcurveto
          4 9 rlineto
          -13 14 21 -6 26 hhcurveto
          13 78 47 21 19 hvcurveto
          35 39 20 62 21 69 rrcurveto
          17 7 21 17 6 vvcurveto
          1 36 callgsubr
          -5 -9 -3 -8 -16 vhcurveto
          10 39 8 30 1 21 rrcurveto
          -74 -135 rmoveto
          -54 -15 -51 -128 -63 hhcurveto
          -16 -16 8 19 -17 hvcurveto
          8 16 7 19 11 21 37 40 60 30 55 29 rrcurveto
          8 22 rmoveto
          -42 -21 -65 -37 -46 -38 rrcurveto
          124 78 61 80 22 hhcurveto
          7 3 -7 -14 hvcurveto
          -1 -18 -3 -31 -14 -38 rrcurveto
          endchar
        </CharString>
        <CharString name="backslash">
          297 574 27 vstem
          586 -93 rmoveto
          12 4 8 12 13 -4 17 -6 17 hvcurveto
          150 -52 -443 574 -30 hhcurveto
          -15 -7 -9 -11 -6 2 -7 5 -5 hvcurveto
          148 -170 323 -414 45 -124 rrcurveto
          -38 14 -14 -7 18 hhcurveto
          endchar
        </CharString>
        <CharString name="bar">
          -88 118 40 vstem
          123 -75 rmoveto
          21 61 14 460 94 9 callsubr
          -333 vlineto
          -40 0 -105 -7 -28 vhcurveto
          -1 -4 -1 -4 -3 vvcurveto
          -9 4 -6 5 4 5 4 9 5 vhcurveto
          endchar
        </CharString>
        <CharString name="braceleft">
          16 84 39 14 37 vstem
          115 265 rmoveto
          95 21 36 108 20 80 rrcurveto
          88 22 22 57 109 hhcurveto
          7 1 3 6 5 vvcurveto
          5 -2 4 -3 vhcurveto
          -1 hlineto
          -193 6 -135 -112 -32 hvcurveto
          -26 -90 -37 -14 -87 -9 rrcurveto
          -10 -3 -8 -6 -4 -14 101 21 -85 -81 -53 -73 -81 vvcurveto
          -68 59 -8 57 13 10 7 5 vhcurveto
          17 -100 -34 80 78 51 72 78 vvcurveto
          41 -24 30 -35 13 vhcurveto
          endchar
        </CharString>
        <CharString name="braceright">
          118 285 37 12 42 vstem
          341 254 rmoveto
          -95 -21 -36 -108 -20 -80 rrcurveto
          -88 -22 -22 -57 -109 hhcurveto
          -7 36 callsubr
          -5 vvcurveto
          -5 2 -4 3 vhcurveto
          1 hlineto
          193 -6 135 112 32 hvcurveto
          25 90 37 14 88 9 rrcurveto
          10 3 8 5 5 14 -102 -21 85 80 53 74 81 vvcurveto
          68 -58 8 -57 -14 -10 -7 -5 vhcurveto
          -17 101 34 -81 -77 -51 -72 -78 vvcurveto
          -42 24 -29 35 -13 vhcurveto
          endchar
        </CharString>
        <CharString name="bracketleft">
          278 -17 21 hstem
          36 52 vstem
          551 664 rmoveto
          3 5 1 4 4 vvcurveto
          4 -3 3 -7 vhcurveto
          -127 hlineto
          -28 -21 -15 -18 -16 hvcurveto
          -87 -101 -246 -418 -114 vvcurveto
          -29 48 -2 31 vhcurveto
          145 hlineto
          10 10 14 8 3 -1 2 -4 hvcurveto
          -24 -44 -3 -24 hhcurveto
          -57 -35 7 24 65 81 148 79 137 hvcurveto
          185 107 52 79 44 hhcurveto
          82 hlineto
          24 3 0 8 4 hvcurveto
          endchar
        </CharString>
        <CharString name="bracketright">
          249 -17 30 671 -21 hstem
          498 52 vstem
          27 3 rmoveto
          -3 -5 -1 -5 -3 vvcurveto
          -5 3 -2 7 vhcurveto
          127 hlineto
          28 21 15 18 16 hvcurveto
          87 101 246 418 114 vvcurveto
          28 -48 3 -31 vhcurveto
          -145 hlineto
          -10 -10 -14 -8 -3 1 -2 4 hvcurveto
          24 44 3 24 hhcurveto
          57 35 -7 -24 -65 -81 -148 -79 -137 hvcurveto
          -185 -107 -52 -79 -44 hhcurveto
          -82 hlineto
          -24 -3 0 -8 -4 hvcurveto
          endchar
        </CharString>
        <CharString name="breve">
          -123 366 22 hstem
          232 457 rmoveto
          -10 callgsubr
          -2 -5 -4 -5 -4 -2 vhcurveto
          -31 -18 -30 -33 -39 -62 -4 57 -13 hhcurveto
          -5 -1 -6 -4 -42 41 -27 36 50 37 44 41 20 hvcurveto
          1 2 1 2 2 vvcurveto
          endchar
        </CharString>
        <CharString name="brokenbar">
          -88 118 40 vstem
          153 322 rmoveto
          4 97 1 86 35 9 callsubr
          -120 vlineto
          -47 vmoveto
          -99 1 -68 -48 -81 -10 -27 -30 vvcurveto
          -9 4 -6 5 26 8 173 196 8 vhcurveto
          endchar
        </CharString>
        <CharString name="bullet">
          230 41 -21 433 -20 hstem
          487 237 rmoveto
          119 -97 97 -120 -119 -97 -97 -120 -119 97 -97 120 119 97 97 120 vhcurveto
          endchar
        </CharString>
        <CharString name="c">
          -76 376 -20 hstem
          263 312 rmoveto
          1 6 0 5 5 vvcurveto
          21 callsubr
          -81 -163 -96 vvcurveto
          -50 26 -21 35 88 85 112 27 41 callsubr
          -66 -114 -84 hhcurveto
          -21 -8 11 26 72 70 154 -10 callsubr
          10 15 14 24 4 vhcurveto
          endchar
        </CharString>
        <CharString name="caron">
          63 368 -21 124 -20 21 -20 hstemhm
          hintmask 11000000
          108 470 -72 callgsubr
          hintmask 10100000
          -49 callsubr
        </CharString>
        <CharString name="ccedilla">
          -76 376 -20 hstem
          5 36 16 42 vstem
          99 39 callgsubr
          20 8 22 16 12 vhcurveto
          88 6 85 113 26 vvcurveto
          41 callsubr
          -69 -121 -84 hhcurveto
          -21 -8 10 26 73 73 161 -10 callsubr
          14 16 21 33 21 callsubr
          -84 -167 -100 vvcurveto
          -35 11 -23 25 -8 vhcurveto
          -21 -16 -11 -30 -28 -3 callgsubr
        </CharString>
        <CharString name="cedilla">
          -83 79 36 16 42 vstem
          173 39 callgsubr
          28 16 30 30 5 vhcurveto
          6 -1 -6 1 -5 hhcurveto
          -46 -24 -46 -41 hvcurveto
          -3 callgsubr
        </CharString>
        <CharString name="cent">
          -76 376 -20 113 -20 hstem
          315 630 rmoveto
          -18 callsubr
          -1 hhcurveto
          -14 -14 -30 -125 -51 hvcurveto
          -16 -4 -18 -12 -23 -7 rrcurveto
          -38 -17 -75 -118 -74 vvcurveto
          -36 24 -14 29 vhcurveto
          6 hlineto
          -24 -66 -17 -57 -38 vvcurveto
          -18 3 -17 13 -1 21 2 16 vhcurveto
          1 -14 1 22 vvcurveto
          24 17 60 27 75 vhcurveto
          72 20 57 63 18 vvcurveto
          3 -1 2 -3 vhcurveto
          -6 -1 -49 -68 -63 -17 28 76 35 88 34 79 rrcurveto
          14 4 -5 -8 hvcurveto
          -10 -7 -13 -9 vvcurveto
          -9 4 -4 6 12 16 15 24 25 -18 9 -24 1 vhcurveto
          22 51 20 47 17 35 rrcurveto
          2 5 1 4 callsubr
          5 -2 2 -2 1 vhcurveto
          -131 -202 rmoveto
          7 5 16 11 16 8 -30 -71 -36 -92 -29 -74 rrcurveto
          -9 hlineto
          -14 1 -5 10 16 vvcurveto
          54 65 116 19 16 vhcurveto
          endchar
        </CharString>
        <CharString name="circumflex">
          63 519 -21 125 -20 hstem
          306 500 -103 callgsubr
        </CharString>
        <CharString name="colon">
          -105 91 53 vstem
          200 357 rmoveto
          -1 2 rlineto
          1 -1 -2 1 callgsubr
          -18 -43 -26 -27 -13 0 -27 19 35 0 21 68 14 hvcurveto
          -42 -205 rmoveto
          -1 1 24 callgsubr
          -13 0 -27 19 35 0 21 68 14 hvcurveto
          endchar
        </CharString>
        <CharString name="comma">
          -105 -148 -21 186 -21 78 -20 hstem
          162 66 -3 callsubr
          vvcurveto
          -9 3 -8 6 -7 vhcurveto
          1 hlineto
          28 callgsubr
          -34 -69 -81 -32 -33 vhcurveto
          -2 vlineto
          -2 1 -1 3 22 95 64 113 37 vhcurveto
          21 callgsubr
          endchar
        </CharString>
        <CharString name="copyright">
          492 -75 28 76 21 65 12 395 -20 167 30 hstem
          25 54 -38 36 54 33 289 18 71 38 65 62 vstem
          324 -8 rmoveto
          267 170 220 184 134 -89 115 -205 -263 -155 -215 -184 -136 85 -118 190 hvcurveto
          150 636 rmoveto
          167 70 -101 -120 -176 -152 -219 -227 -173 -72 99 118 177 161 222 226 hvcurveto
          126 -402 rmoveto
          1 -1 0 -1 vhcurveto
          -9 -60 -106 -162 hhcurveto
          -104 -46 69 81 115 94 141 151 38 37 -13 -21 13 hvcurveto
          -5 -16 -7 -17 -18 vvcurveto
          -11 5 -5 14 16 1 22 12 1 vhcurveto
          14 -1 13 -5 12 vhcurveto
          4 15 8 16 16 vvcurveto
          4 -4 3 -4 -11 3 -19 -16 -7 vhcurveto
          26 -19 -38 4 -32 hhcurveto
          -182 -112 -158 -129 -90 54 -76 123 91 160 51 75 3 36 callgsubr
          1 hvcurveto
          endchar
        </CharString>
        <CharString name="currency">
          172 154 7 230 6 hstem
          112 14 256 13 vstem
          414 448 rmoveto
          -7 -8 -28 -31 -37 -36 rrcurveto
          8 -17 -20 4 -23 hhcurveto
          -30 -29 -6 -11 -25 hvcurveto
          -21 39 -16 35 -2 8 -29 -9 rcurveline
          53 -81 rlineto
          -40 -24 -27 -38 -47 vvcurveto
          -29 13 -22 22 -14 vhcurveto
          -102 -96 rlineto
          32 hlineto
          82 90 rlineto
          -8 17 19 -3 22 hhcurveto
          22 22 3 7 20 hvcurveto
          25 -43 20 -36 3 -9 rrcurveto
          33 hlineto
          -5 6 -29 43 -29 47 rrcurveto
          47 22 33 42 53 vvcurveto
          27 -11 21 -18 13 vhcurveto
          38 36 35 29 10 9 rrcurveto
          -92 -144 rmoveto
          -51 -43 -46 -69 -52 -26 31 37 54 48 40 70 51 21 -29 -36 vhcurveto
          endchar
        </CharString>
        <CharString name="d">
          32 14 -20 662 -20 hstem
          426 648 rmoveto
          3 -6 -11 4 -10 hhcurveto
          -7 -6 -2 -6 -3 hvcurveto
          -4 -6 -26 -45 -22 vvcurveto
          -7 3 -5 8 vhcurveto
          -9 -32 -43 -109 -22 -59 rrcurveto
          -1 -1 0 0 vhcurveto
          -8 -38 16 -26 -20 -2 -15 -15 hhcurveto
          -4 hlineto
          -59 -112 -253 -86 -22 7 -8 14 54 114 148 47 33 hvcurveto
          -13 -38 -25 -87 -40 vvcurveto
          -15 9 -6 10 36 74 64 18 18 vhcurveto
          1 6 13 7 3 -1 2 -2 hvcurveto
          -9 -46 -71 -34 hhcurveto
          -8 -5 6 17 32 56 181 25 57 hvcurveto
          -2 1 7 -1 6 hhcurveto
          4 6 0 6 8 -8 12 -5 -1 0 0 -1 -1 hvcurveto
          40 117 61 133 36 vvcurveto
          5 48 callgsubr
          1 vhcurveto
          -143 -309 rmoveto
          -10 -17 -31 -98 -61 -68 rrcurveto
          -15 -14 -77 -98 -28 hhcurveto
          -6 -4 5 11 76 121 206 26 7 hvcurveto
          1 4 10 1 11 hhcurveto
          25 34 -4 -7 hvcurveto
          endchar
        </CharString>
        <CharString name="dagger">
          80 189 34 -45 callsubr
          -6 -86 -8 -85 -6 -85 14 callsubr
          17 25 266 127 11 vhcurveto
          35 callgsubr
        </CharString>
        <CharString name="daggerdbl">
          139 2 27 -45 callsubr
          -8 -101 -48 -1 -50 0 -47 -5 rlinecurve
          -21 callgsubr
          71 4 -4 -44 -4 -44 -3 -43 14 callsubr
          16 17 187 81 8 vhcurveto
          45 2 136 0 7 vvcurveto
          12 -143 2 -36 1 vhcurveto
          4 33 3 34 3 34 rrcurveto
          35 callgsubr
        </CharString>
        <CharString name="degree">
          -24 320 22 128 22 hstem
          65 22 128 22 vstem
          237 406 rmoveto
          47 -39 39 -47 -47 -39 -39 -47 -47 39 -39 47 47 39 39 47 vhcurveto
          -22 hmoveto
          -35 -29 -29 -35 -35 -29 29 35 35 29 29 35 35 29 -29 -35 vhcurveto
          endchar
        </CharString>
        <CharString name="dieresis">
          88 128 4 callgsubr
          289 578 -106 callsubr
        </CharString>
        <CharString name="divide">
          99 105 64 136 64 hstem
          142 80 vstem
          268 335 3 callsubr
          128 -73 rmoveto
          -2 -23 -38 -1 -35 -45 -21 1 -36 hhcurveto
          -162 -17 8 -33 -18 101 -6 54 17 12 1 1 4 hvcurveto
          32 8 158 13 25 -20 callsubr
          1 vvcurveto
          -174 -127 3 callsubr
          endchar
        </CharString>
        <CharString name="dollar">
          265 591 28 hstem
          27 27 vstem
          398 636 rmoveto
          -1 18 callsubr
          hhcurveto
          -15 -8 -18 -97 -37 hvcurveto
          -113 -13 -106 -67 -83 vvcurveto
          -65 60 -23 59 -22 vhcurveto
          -31 -82 -29 -81 -21 -70 rrcurveto
          -38 -24 6 27 -13 hvcurveto
          13 -6 2 19 -4 hhcurveto
          -32 4 -42 0 -22 14 -24 62 -1 hvcurveto
          9 10 0 1 9 hvcurveto
          -15 -53 -10 -46 -34 vvcurveto
          -25 5 -22 14 -1 25 4 20 vhcurveto
          1 -17 3 28 vvcurveto
          24 11 44 17 59 vhcurveto
          118 18 98 87 75 vvcurveto
          54 -62 20 -60 23 vhcurveto
          28 77 30 78 26 67 rrcurveto
          35 -1 30 -12 -38 -12 -4 -12 -6 vvcurveto
          -4 2 -1 3 24 4 44 4 33 -12 34 -61 vhcurveto
          -9 hlineto
          14 35 25 50 16 vvcurveto
          6 -3 3 -2 2 vhcurveto
          -58 -512 rmoveto
          -18 -57 -76 -44 -66 -6 20 65 27 78 29 80 rrcurveto
          47 -18 42 -21 -46 vvcurveto
          -9 -1 -11 -4 -11 vhcurveto
          -187 251 rmoveto
          70 103 43 67 6 vhcurveto
          -73 -199 -2 -5 -2 -4 -1 -4 rlinecurve
          -49 19 -43 25 49 vvcurveto
          endchar
        </CharString>
        <CharString name="dotaccent">
          -134 506 -21 86 -20 hstem
          135 569 rmoveto
          0 -1 1 1 vvcurveto
          -1 vlineto
          1 -1 -1 0 -1 hhcurveto
          -20 -56 -36 -21 -9 11 -20 10 26 6 50 17 12 hvcurveto
          2 3 13 12 2 vvcurveto
          endchar
        </CharString>
        <CharString name="dotlessi">
          -89 callgsubr
          endchar
        </CharString>
        <CharString name="e">
          -98 callsubr
          endchar
        </CharString>
        <CharString name="eacute">
          -98 callsubr
          104 249 -99 callgsubr
        </CharString>
        <CharString name="ecircumflex">
          -98 callsubr
          103 312 -103 callgsubr
        </CharString>
        <CharString name="edieresis">
          -21 callsubr
          160 4 callgsubr
          -102 callgsubr
          94 270 -106 callsubr
        </CharString>
        <CharString name="egrave">
          -98 callsubr
          -108 256 -99 callsubr
        </CharString>
        <CharString name="eight">
          103 -18 19 599 30 hstem
          532 57 vstem
          184 421 rmoveto
          12 63 70 21 53 2 45 3 56 -26 -16 -54 rrcurveto
          -2 -4 -1 -2 -3 vvcurveto
          -2 -5 1 -1 5 -1 10 -1 11 16 1 5 rrcurveto
          74 18 -42 25 -64 hhcurveto
          -90 -91 -52 -80 -16 hvcurveto
          -12 -64 39 -40 47 -35 -17 -9 -15 -9 -14 -9 rrcurveto
          -56 -38 -82 -64 -62 vvcurveto
          -118 146 13 105 54 vhcurveto
          58 30 42 45 6 36 11 63 -63 37 -60 43 104 58 104 51 21 118 rrcurveto
          9 50 -44 -4 -40 vvcurveto
          -98 -112 -66 -100 -56 vhcurveto
          -46 34 -42 39 13 61 rrcurveto
          152 -303 rmoveto
          -20 -110 -257 -46 18 116 3 27 30 46 36 33 26 25 31 21 31 19 55 -39 57 -34 -10 -58 rrcurveto
          endchar
        </CharString>
        <CharString name="ellipsis">
          378 139 49 222 49 240 49 vstem
          177 75 -29 callsubr
          415 -2 rmoveto
          1 18 callsubr
          -13 -46 -26 -25 -14 1 -25 16 30 3 23 65 13 vhcurveto
          -207 2 -29 callsubr
          endchar
        </CharString>
        <CharString name="emdash">
          299 122 35 hstem
          584 152 rmoveto
          10 -19 -231 6 -216 22 callsubr
          515 -9 callsubr
        </CharString>
        <CharString name="endash">
          90 138 30 hstem
          436 152 rmoveto
          -20 11 -48 0 -27 1 rrcurveto
          1 -19 -154 3 -50 22 callsubr
          367 -9 callsubr
        </CharString>
        <CharString name="equal">
          92 120 47 -45 35 45 35 hstemhm
          hintmask 01100000
          274 152 -62 callgsubr
          hintmask 10100000
          -51 callsubr
          4 82 -68 callsubr
        </CharString>
        <CharString name="eth">
          3 -13 24 327 45 283 -20 hstem
          21 45 167 30 vstem
          80 513 rmoveto
          -9 -6 -4 -8 -6 vvcurveto
          -5 4 -5 6 17 43 24 15 29 vhcurveto
          31 -55 26 -60 1 -27 rrcurveto
          -9 callgsubr
          99 89 163 138 89 -24 92 -36 72 vhcurveto
          49 26 40 26 9 vvcurveto
          -20 callsubr
          -3 -5 -43 -17 -21 -49 vhcurveto
          35 -19 -39 65 -24 hhcurveto
          -14 -11 -14 -13 -12 40 -36 27 -43 hvcurveto
          -30 -13 -26 -12 -15 -10 rrcurveto
          153 -241 rmoveto
          -80 callgsubr
          2 3 0 -1 2 hvcurveto
          7 hlineto
          23 3 -21 -26 hvcurveto
          endchar
        </CharString>
        <CharString name="exclam">
          -105 77 53 vstem
          393 650 rmoveto
          1 2 12 callsubr
          10 -15 4 -16 -23 -26 -7 -9 -1 vhcurveto
          3 -12 15 3 -3 vvcurveto
          -10 -44 -81 -9 -23 vhcurveto
          -26 -64 -101 -203 -64 vvcurveto
          -12 2 -7 10 14 24 11 13 vhcurveto
          7 -7 2 10 vvcurveto
          63 177 340 21 25 vhcurveto
          -249 -578 rmoveto
          -1 2 24 callgsubr
          -17 0 -24 22 hvcurveto
          34 8 -2 13 14 68 rrcurveto
          endchar
        </CharString>
        <CharString name="exclamdown">
          -105 124 49 vstem
          174 396 -7 callsubr
          -81 -158 rmoveto
          -1 18 callsubr
          hhcurveto
          -13 -23 -12 -11 hvcurveto
          -6 7 -1 -11 vvcurveto
          -65 -179 -340 -21 -26 vhcurveto
          -1 -2 -1 -2 -2 vvcurveto
          -8 14 -3 16 22 27 6 8 vhcurveto
          -3 10 -15 -5 7 vvcurveto
          13 43 75 11 26 vhcurveto
          26 63 100 208 61 vvcurveto
          8 -1 5 -4 3 vhcurveto
          endchar
        </CharString>
        <CharString name="f">
          38 callsubr
          386 663 rmoveto
          -67 -5 -64 14 -44 -97 -15 -32 -41 -143 -7 -25 rrcurveto
          9 callgsubr
          -10 -38 -83 -282 -58 callsubr
          69 243 9 25 27 callgsubr
          -98 hlineto
          20 79 24 68 24 62 rrcurveto
          41 16 29 15 25 38 9 -41 4 hhcurveto
          9 11 23 18 11 -4 10 -12 2 hvcurveto
          endchar
        </CharString>
        <CharString name="fi">
          95 11 -20 348 45 callsubr
          hstem
          363 661 rmoveto
          -82 -49 -35 -77 -28 hvcurveto
          -12 -33 -40 -124 -59 callgsubr
          11 37 23 80 24 62 rrcurveto
          40 16 22 55 66 hhcurveto
          35 39 -41 -21 hvcurveto
          -8 -31 -38 -26 vvcurveto
          -15 11 -5 8 18 35 13 52 44 -27 66 -77 vhcurveto
          64 -282 -56 callsubr
        </CharString>
        <CharString name="five">
          183 -8 30 239 18 74 27 38 27 109 25 -6 39 35 -20 hstem
          -33 45 20 72 455 74 49 63 25 24 vstem
          234 339 rmoveto
          -3 -11 -2 -18 5 -2 -14 -34 -22 -66 -17 -37 rrcurveto
          -8 -3 -5 -5 -5 vvcurveto
          -8 6 -12 10 5 vhcurveto
          11 24 38 11 39 hhcurveto
          90 30 -52 -55 -123 -99 -73 -124 hvcurveto
          -158 39 178 121 hhcurveto
          6 4 2 3 4 -3 5 -7 hvcurveto
          -166 -49 -213 203 hhcurveto
          159 129 97 134 97 -84 19 -98 -27 -19 -6 -7 -12 hvcurveto
          15 38 26 62 29 52 rrcurveto
          12 53 64 5 52 hhcurveto
          29 32 -5 -24 callsubr
          -27 -78 -3 -13 -63 vhcurveto
          -33 -6 -23 -5 -2 -14 rrcurveto
          endchar
        </CharString>
        <CharString name="fl">
          119 11 -20 348 45 callsubr
          -15 -20 hstem
          502 637 rmoveto
          13 -34 -71 11 -53 hhcurveto
          -77 -25 -18 -68 -31 hvcurveto
          -15 -32 -44 -151 -59 callgsubr
          20 79 27 77 24 62 rrcurveto
          40 16 28 16 25 hhcurveto
          59 44 -19 -18 15 hvcurveto
          -52 -186 -59 -188 -70 -196 rrcurveto
          -16 callsubr
          2 0 32 callsubr
          hvcurveto
          36 159 83 237 71 151 rrcurveto
          4 4 3 4 4 vvcurveto
          5 -4 4 -10 4 vhcurveto
          endchar
        </CharString>
        <CharString name="florin">
          38 callsubr
          212 292 rmoveto
          -16 14 -24 -6 -34 2 rrcurveto
          40 11 63 270 93 hhcurveto
          14 29 -2 -42 hvcurveto
          -15 -16 -41 -8 vvcurveto
          -4 2 -2 3 19 10 65 16 41 -23 21 -33 -144 -50 -308 -31 -11 vhcurveto
          1 -12 -12 0 -6 hhcurveto
          -32 hlineto
          -4 -2 -7 -6 -4 1 -4 4 hvcurveto
          56 hlineto
          -100 -28 -126 -553 -238 hhcurveto
          -47 -50 31 58 17 2 14 15 24 hvcurveto
          1 vlineto
          0 0 1 -1 -3 -11 -2 -18 -10 vhcurveto
          -11 -20 -2 -23 -18 vvcurveto
          -63 50 -31 62 267 112 491 191 54 vhcurveto
          65 hlineto
          11 4 3 3 2 0 -20 callsubr
          hvcurveto
          endchar
        </CharString>
        <CharString name="four">
          135 11 -20 63 25 157 25 8 33 -16 39 297 -20 34 -20 39 19 hstem
          -14 37 447 35 124 39 vstem
          465 -16 callgsubr
          -293 -258 -50 -26 -11 -6 1 -36 12 4 7 3 32 11 12 2 60 9 93 11 75 6 -59 -170 rcurveline
          -46 callgsubr
          16 19 17 13 2 vhcurveto
          2 16 14 41 -13 5 2 9 20 59 17 51 rrcurveto
          12 12 1 10 hhcurveto
          29 24 -9 -24 callsubr
          vhcurveto
          -16 hlineto
          8 23 7 19 3 6 44 116 43 97 22 41 rrcurveto
          -388 -324 rmoveto
          -1 -3 -3 0 -3 hhcurveto
          92 70 181 151 24 17 14 9 1 -10 -7 -20 -69 -196 rcurveline
          -74 -4 -109 -10 -44 -6 rrcurveto
          endchar
        </CharString>
        <CharString name="fraction">
          -106 -177 27 vstem
          391 472 -74 callsubr
          endchar
        </CharString>
        <CharString name="g">
          -14 413 -20 hstem
          246 51 vstem
          239 -214 rmoveto
          1 6 0 7 7 vvcurveto
          91 -88 126 -81 30 vhcurveto
          -4 hlineto
          -14 -15 -16 -14 -12 23 -6 17 -11 hvcurveto
          -9 -3 -9 -4 -2 -3 rrcurveto
          -33 -37 -98 -164 -80 vvcurveto
          -42 32 -11 41 89 138 65 71 12 vhcurveto
          70 503 rmoveto
          -32 callgsubr
          vvcurveto
          11 -17 9 -4 3 vhcurveto
          16 2 18 15 vvcurveto
          28 -5 18 -24 -23 -3 -18 -18 vhcurveto
          1 -5 -5 1 -5 hhcurveto
          -80 -86 -133 -113 -46 15 -21 38 63 65 55 86 34 hvcurveto
          5 12 7 49 4 18 rrcurveto
          9 hlineto
          5 6 0 4 3 hvcurveto
          -117 -516 rmoveto
          -41 -3 -121 -57 -66 hhcurveto
          -33 -14 14 27 74 112 148 28 42 hvcurveto
          49 -43 48 -75 -76 vvcurveto
          57 503 rmoveto
          -111 -84 -84 -43 -15 -10 10 21 30 14 46 11 30 vhcurveto
          32 12 41 87 47 hhcurveto
          23 -19 -56 -5 23 hvcurveto
          endchar
        </CharString>
        <CharString name="germandbls">
          303 -68 24 36 32 359 -20 278 45 hstemhm
          243 44 -40 29 454 46 3 46 hintmask 11111011
          519 627 rmoveto
          30 -34 -48 7 -42 hhcurveto
          -63 -54 -31 -58 -27 hvcurveto
          -15 -32 -44 -151 28 callsubr
          -11 -9 -6 -3 4 -3 9 hvcurveto
          65 hlineto
          -10 -38 -82 -284 -42 -108 -29 -73 -36 -31 -32 1 rrcurveto
          -30 -34 20 42 hvcurveto
          6 1 5 4 vvcurveto
          6 -2 2 -4 -9 -10 -13 -25 -24 11 -42 67 54 76 37 153 49 vhcurveto
          31 96 66 240 7 26 rrcurveto
          228 60 27 69 88 hhcurveto
          71 56 -58 -38 -44 -56 -32 -49 -16 hvcurveto
          -98 -32 -28 -40 -41 -109 224 -3 -102 vvcurveto
          -78 -89 -33 -64 -35 -24 5 24 -14 vhcurveto
          13 -8 3 16 -6 hhcurveto
          hintmask 11110111
          -29 -2 -23 -9 -24 15 -29 60 118 124 77 87 hvcurveto
          106 -231 0 93 88 229 12 99 vvcurveto
          23 -13 25 -30 27 vhcurveto
          endchar
        </CharString>
        <CharString name="grave">
          40 callgsubr
          117 614 -99 callsubr
        </CharString>
        <CharString name="greater">
          11 435 -20 hstem
          184 -43 callgsubr
          endchar
        </CharString>
        <CharString name="greaterequal">
          11 435 -20 hstem
          183 -43 callgsubr
          21 -247 -44 callgsubr
        </CharString>
        <CharString name="guillemotleft">
          113 85 45 96 45 vstem
          369 436 rmoveto
          4 -3 2 -3 -9 -5 -4 -7 -5 vhcurveto
          -18 14 callgsubr
          42 -26 34 -48 8 -4 rcurveline
          9 2 5 8 18 -81 96 -17 33 callsubr
          -140 hmoveto
          4 -3 2 -4 -8 -6 -4 -7 -5 vhcurveto
          -17 14 callgsubr
          41 -26 35 -48 8 -4 rcurveline
          8 2 5 8 18 -81 96 -16 33 callsubr
          endchar
        </CharString>
        <CharString name="guillemotright">
          113 435 -20 hstem
          184 45 111 45 vstem
          385 315 rmoveto
          -37 callsubr
          -156 hmoveto
          -37 callsubr
          endchar
        </CharString>
        <CharString name="guilsinglleft">
          17 18 -21 513 -20 hstem
          287 447 rmoveto
          6 5 8 32 17 vvcurveto
          6 48 callgsubr
          -1 -1 0 -1 -1 vhcurveto
          -42 -40 -231 -181 0 vvcurveto
          -7 -3 -1 -26 0 vvcurveto
          7 -13 30 -42 32 -49 22 -36 80 -116 -4 -6 rrcurveto
          4 1 11 24 33 vvcurveto
          11 -98 126 -41 77 vhcurveto
          42 42 127 92 61 44 rrcurveto
          endchar
        </CharString>
        <CharString name="guilsinglright">
          64 11 -21 514 -20 hstem
          78 54 rmoveto
          -6 -5 -8 -33 -16 vvcurveto
          -6 1 -4 2 1 1 1 1 1 vhcurveto
          42 40 231 181 0 vvcurveto
          7 3 1 26 0 vvcurveto
          -7 13 -31 41 -31 50 -23 35 -80 117 3 6 rrcurveto
          -3 -2 -11 -24 -33 vvcurveto
          -11 99 -125 41 -77 vhcurveto
          -42 -42 -127 -92 -61 -44 rrcurveto
          endchar
        </CharString>
        <CharString name="h">
          3 632 -20 hstem
          334 354 rmoveto
          -1 callsubr
          4 -12 -75 -113 -175 -58 -37 vhcurveto
          40 145 63 173 74 150 7 callgsubr
          -46 -13 -23 -82 -29 hvcurveto
          -2 -6 -1 -4 -3 -5 2 -1 -7 vvcurveto
          31 callgsubr
          -3 -9 vhcurveto
          -53 -160 -38 -142 -61 -157 rrcurveto
          -4 -9 -1 -6 -5 vvcurveto
          -7 4 -3 5 63 -23 108 213 190 vhcurveto
          11 10 6 4 2 hhcurveto
          1 0 0 -2 hvcurveto
          -25 -112 -214 -98 vvcurveto
          -28 10 -9 15 25 31 23 16 3 -1 3 -4 vhcurveto
          -6 -23 -18 -6 hhcurveto
          -6 -2 6 8 87 88 176 59 96 hvcurveto
          endchar
        </CharString>
        <CharString name="hungarumlaut">
          403 521 189 hstem
          371 679 rmoveto
          26 callsubr
          -23 -46 39 callsubr
          -6 -4 vvcurveto
          -7 2 -4 3 11 79 141 17 9 vhcurveto
          121 hmoveto
          26 callsubr
          -22 -47 39 callsubr
          -5 -4 vvcurveto
          -7 2 -5 3 11 79 142 16 9 vhcurveto
          endchar
        </CharString>
        <CharString name="hyphen">
          -50 callsubr
        </CharString>
        <CharString name="i">
          -139 11 -20 hstem
          255 550 -51 callgsubr
          -29 -56 -42 -29 -16 1 -17 19 hvcurveto
          16 4 7 20 5 13 rrcurveto
          11 26 32 15 23 vvcurveto
          -57 -171 -56 callsubr
        </CharString>
        <CharString name="iacute">
          -89 callgsubr
          139 178 -99 callgsubr
        </CharString>
        <CharString name="icircumflex">
          -89 callgsubr
          92 119 -103 callgsubr
        </CharString>
        <CharString name="idieresis">
          -139 -6 20 hstem
          127 4 callgsubr
          -94 callsubr
          90 199 -106 callsubr
        </CharString>
        <CharString name="igrave">
          -89 callgsubr
          -104 179 -99 callsubr
        </CharString>
        <CharString name="infinity">
          291 156 40 -21 -21 234 39 8 -20 hstemhm
          18 31 471 44 hintmask 10101100
          294 269 rmoveto
          -9 2 61 -104 84 hhcurveto
          61 62 44 101 63 -35 63 -113 -71 -47 -49 -40 -16 hvcurveto
          hintmask 01011100
          8 -3 -66 89 -59 hhcurveto
          -70 -66 -70 -88 -60 35 -63 69 70 59 31 84 43 hvcurveto
          hintmask 10101100
          -166 -73 rmoveto
          -45 -34 32 54 56 46 50 52 59 40 -51 -29 20 hvcurveto
          -57 -21 -56 -55 -61 hhcurveto
          297 185 rmoveto
          49 46 -31 -66 -64 -40 -33 -37 -62 -36 57 50 -35 hvcurveto
          52 19 47 35 49 hhcurveto
          endchar
        </CharString>
        <CharString name="integral">
          -31 -180 18 794 18 hstem
          320 496 rmoveto
          2 11 2 10 10 vvcurveto
          28 -13 20 -29 -52 -32 -34 -49 -25 vhcurveto
          -108 -210 -43 -336 -187 -155 rrcurveto
          -18 -22 -26 -8 -27 hhcurveto
          -45 -41 25 48 15 2 12 14 21 hvcurveto
          0 0 1 -1 -3 -5 -2 -3 -2 vhcurveto
          -11 -12 rlineto
          -8 -19 -3 -16 -14 vvcurveto
          -49 42 -22 49 vhcurveto
          328 37 806 162 hhcurveto
          19 18 -10 -28 hvcurveto
          -14 -10 -8 -15 vvcurveto
          -5 38 callgsubr
          3 4 3 7 2 vhcurveto
          endchar
        </CharString>
        <CharString name="j">
          -106 205 91 vstem
          219 379 rmoveto
          6 -2 -6 3 -8 hhcurveto
          -44 -15 -24 -81 -21 hvcurveto
          -2 -5 0 -4 -3 -6 3 -1 -8 42 callsubr
          -8 vhcurveto
          -41 -160 -26 -90 -42 -135 rrcurveto
          -71 -22 -32 -30 -29 hhcurveto
          -37 -32 48 74 hvcurveto
          10 vlineto
          4 -1 -2 2 -2 hhcurveto
          -8 -11 -30 -34 -38 8 -54 77 54 73 38 153 35 hvcurveto
          33 147 44 168 58 138 rrcurveto
          34 151 rmoveto
          13 7 5 7 5 vvcurveto
          5 -6 4 -8 -21 -64 -35 -30 vhcurveto
          -9 1 9 -32 10 hhcurveto
          26 0 58 20 35 hvcurveto
          endchar
        </CharString>
        <CharString name="k">
          -38 646 -20 hstem
          326 353 rmoveto
          19 15 8 11 6 35 callsubr
          1 -4 -7 -15 -6 -14 -19 vhcurveto
          -13 -17 -181 -162 -1 hhcurveto
          41 163 49 116 74 150 rrcurveto
          -35 callgsubr
          -14 -23 -82 -29 -19 callsubr
          -53 -160 -45 -159 -62 -157 rrcurveto
          -3 -9 -2 -6 -4 vvcurveto
          -6 3 -3 4 15 33 29 9 vhcurveto
          1 19 36 109 8 22 rrcurveto
          -22 14 79 -164 57 hhcurveto
          6 3 2 4 6 -6 9 -13 11 hvcurveto
          -26 22 -60 89 53 vvcurveto
          22 82 101 91 53 vhcurveto
          endchar
        </CharString>
        <CharString name="l">
          -29 callgsubr
          -50 -160 -36 -132 -57 -158 rrcurveto
          -16 callsubr
          2 0 32 callsubr
          hvcurveto
          37 163 87 245 72 150 rrcurveto
          endchar
        </CharString>
        <CharString name="less">
          11 85 -42 callsubr
          endchar
        </CharString>
        <CharString name="lessequal">
          11 84 -42 callsubr
          165 -188 -44 callgsubr
        </CharString>
        <CharString name="logicalnot">
          289 176 25 25 -20 hstem
          572 217 rmoveto
          1 vlineto
          9 -20 -1 -37 vhcurveto
          0 -443 -24 -35 -4 vhcurveto
          -5 -3 -3 -3 -5 vvcurveto
          -7 1 9 -4 7 hhcurveto
          482 21 -3 -34 -6 -64 -3 -58 rlinecurve
          -7 1 4 -3 5 hhcurveto
          11 -1 20 121 3 13 rrcurveto
          endchar
        </CharString>
        <CharString name="lozenge">
          91 554 -20 hstem
          344 286 rmoveto
          82 -19 -48 186 -11 hhcurveto
          -13 -58 -96 -21 -14 hvcurveto
          -56 -86 -31 -48 -1 -21 rrcurveto
          -2 1 -3 2 -3 vhcurveto
          25 -99 13 -50 7 -31 6 -19 rlinecurve
          13 -45 rlineto
          -16 3 -1 -8 10 hhcurveto
          16 30 58 2 2 hvcurveto
          42 65 33 47 19 36 21 39 rcurveline
          5 9 3 7 1 5 rrcurveto
          -34 -16 rmoveto
          -58 -91 -42 -71 -30 -44 -10 57 -9 48 -9 41 -22 102 rcurveline
          27 46 27 39 21 35 53 86 rcurveline
          29 -145 8 -41 8 -35 7 -27 rlinecurve
          endchar
        </CharString>
        <CharString name="lslash">
          -29 callgsubr
          -30 -96 -25 -85 -27 -87 rrcurveto
          -42 -12 -62 -11 -24 23 callsubr
          56 19 -15 -47 -16 -48 -18 -50 rlinecurve
          -16 callsubr
          36 21 53 13 45 hvcurveto
          63 24 60 29 20 callsubr
          -97 -30 43 139 58 153 51 106 rlinecurve
          endchar
        </CharString>
        <CharString name="m">
          181 379 -20 hstem
          568 72 80 55 vstem
          540 363 rmoveto
          4 8 2 6 5 vvcurveto
          10 -8 4 -12 -18 -23 -8 -7 -9 vhcurveto
          -122 -88 -41 -56 -63 -124 18 88 35 75 57 96 rrcurveto
          -1 callsubr
          3 -11 -82 -129 -199 -67 -42 vhcurveto
          17 76 62 125 19 39 7 callgsubr
          -44 -16 -24 -81 -28 -19 callsubr
          -8 -25 -32 -107 -26 -63 rrcurveto
          -3 -8 -18 -30 -15 vvcurveto
          -5 2 -3 6 60 5 119 225 195 vhcurveto
          8 7 5 3 3 hhcurveto
          2 1 -2 -3 -4 -2 -6 -3 -8 hvcurveto
          -30 -79 -46 -142 -18 -86 rrcurveto
          -1 -1 -2 -1 vvcurveto
          -6 5 -3 7 17 33 18 11 3 vhcurveto
          42 154 99 104 55 37 rrcurveto
          3 5 4 2 2 hhcurveto
          3 2 -2 -5 -13 -14 -34 -17 -40 hvcurveto
          -24 -57 -57 -111 1 -66 rrcurveto
          -30 11 -10 18 31 35 25 16 4 -2 2 -3 vhcurveto
          -6 -26 -19 -8 hhcurveto
          -6 -3 6 8 6 1 7 2 7 hvcurveto
          21 110 73 143 52 92 rrcurveto
          endchar
        </CharString>
        <CharString name="macron">
          -79 410 20 hstem
          218 430 rmoveto
          11 -82 7 -37 -31 -46 -9 -13 -3 6 -3 19 vhcurveto
          145 hlineto
          4 22 3 7 hvcurveto
          endchar
        </CharString>
        <CharString name="mu">
          7 callsubr
          -94 callgsubr
          -22 -25 -54 -16 -42 vhcurveto
          -48 -109 -31 -82 -82 vvcurveto
          -25 -3 -87 83 16 10 6 6 4 -6 4 -12 1 vhcurveto
          -41 1 -12 41 46 vvcurveto
          54 16 63 6 17 vhcurveto
          70 26 122 160 38 55 -13 -51 -44 -168 -11 -20 rrcurveto
          -2 -3 -1 -3 -2 vvcurveto
          -7 5 -4 8 43 4 51 13 3 vhcurveto
          7 39 21 89 24 70 22 64 24 60 7 22 rrcurveto
          endchar
        </CharString>
        <CharString name="multiply">
          133 106 -21 305 -20 hstem
          371 86 rmoveto
          -1 1 2 0 2 hhcurveto
          5 4 3 6 21 -77 61 -57 59 hvcurveto
          110 112 rlineto
          17 17 8 16 6 vvcurveto
          3 -1 1 -3 -19 -40 -44 -17 -17 vhcurveto
          -7 -7 -33 -32 -34 -35 -117 124 rcurveline
          3 -3 -17 callsubr
          -8 -7 -10 -9 -13 48 -42 10 -10 hvcurveto
          13 -14 24 -25 25 -25 -62 -64 rcurveline
          -10 -11 -48 -41 -13 vvcurveto
          -9 7 -10 8 30 callsubr
          3 vhcurveto
          117 123 34 -34 33 -33 7 -6 rlinecurve
          19 -19 24 -29 22 -7 rrcurveto
          endchar
        </CharString>
        <CharString name="n">
          19 407 -20 -75 callsubr
          endchar
        </CharString>
        <CharString name="nine">
          205 583 43 hstem
          75 47 vstem
          373 546 rmoveto
          -138 -169 -103 -139 -57 31 -19 34 -3 hvcurveto
          138 -16 152 146 -1 114 1 18 -19 3 -2 -21 -13 -107 -140 -129 -109 22 rrcurveto
          -21 4 -10 17 24 vvcurveto
          134 174 87 89 53 39 -15 -60 -172 -186 -152 -147 -90 vhcurveto
          -9 -4 -6 5 -10 -5 -19 -10 -30 -21 -7 -10 -11 -16 7 -33 39 25 rrcurveto
          157 101 255 171 212 vvcurveto
          62 -26 37 -96 vhcurveto
          endchar
        </CharString>
        <CharString name="notequal">
          92 120 47 35 35 hstem
          379 403 rmoveto
          3 -3 -5 2 -2 hhcurveto
          -9 -67 -82 -91 -67 hvcurveto
          1 -21 -20 1 -23 hhcurveto
          3 3 3 4 4 vvcurveto
          2 -2 2 -6 -4 -6 -1 -2 -8 vhcurveto
          -2 -2 rlineto
          -7 -3 -22 -16 -14 vvcurveto
          -7 6 -6 9 vhcurveto
          3 4 1 3 hhcurveto
          -1 7 8 0 9 hhcurveto
          13 14 1 1 15 hvcurveto
          -34 -47 rlineto
          -10 hlineto
          3 3 3 4 3 30 callgsubr
          -6 -4 -6 -1 -3 -9 vhcurveto
          -2 -2 rlineto
          -7 -3 -22 37 callsubr
          -10 10 -4 7 vhcurveto
          3 26 callgsubr
          hhcurveto
          12 hlineto
          -61 -89 -17 -23 -51 vvcurveto
          -9 3 -7 7 3 10 4 4 vhcurveto
          2 -8 5 10 vvcurveto
          23 35 56 53 75 vhcurveto
          71 2 103 15 11 vvcurveto
          6 -24 1 -20 vhcurveto
          -19 -20 -1 -15 hhcurveto
          -18 -15 0 1 -17 hvcurveto
          12 17 13 17 13 16 rrcurveto
          58 5 57 10 9 vvcurveto
          2 -6 3 -12 2 vhcurveto
          -39 1 rlineto
          -1 -13 -12 -1 -11 hhcurveto
          44 57 84 89 16 vvcurveto
          2 -2 2 13 callsubr
          endchar
        </CharString>
        <CharString name="ntilde">
          19 407 -20 77 27 -75 callsubr
          37 169 -91 callgsubr
        </CharString>
        <CharString name="numbersign">
          365 182 38 147 37 hstem
          660 402 rmoveto
          3 -2 -8 1 -12 -48 -51 -3 -48 hhcurveto
          16 42 rlineto
          7 18 8 45 24 vvcurveto
          12 -3 6 -5 vhcurveto
          -14 -3 -37 -97 -18 -48 rrcurveto
          -55 -54 1 -54 hhcurveto
          16 42 rlineto
          7 19 6 43 25 vvcurveto
          7 -1 12 -6 -13 -30 -98 -49 -18 vhcurveto
          1 -45 -45 0 -44 hhcurveto
          0 -42 -3 -15 vvcurveto
          -15 36 -7 43 1 vhcurveto
          84 1 -18 -50 -17 -48 -19 -50 rlinecurve
          -141 hlineto
          0 -42 -3 -16 vvcurveto
          -15 36 -5 43 vhcurveto
          89 hlineto
          -15 -39 -32 -51 -41 vvcurveto
          -9 2 -8 9 24 16 63 85 33 vhcurveto
          167 1 rlineto
          -14 -38 -28 -51 -42 vvcurveto
          -10 2 -8 9 24 17 63 86 32 vhcurveto
          77 1 rlineto
          27 76 14 15 6 -13 3 -30 hvcurveto
          -122 41 callgsubr
          81 hlineto
          27 76 18 13 1 0 -20 callsubr
          hvcurveto
          -392 -35 rmoveto
          163 1 -18 -50 -17 -49 -17 -50 rlinecurve
          -166 41 callgsubr
          endchar
        </CharString>
        <CharString name="o">
          -93 callgsubr
          endchar
        </CharString>
        <CharString name="oacute">
          -93 callgsubr
          119 318 -99 callgsubr
        </CharString>
        <CharString name="ocircumflex">
          -93 callgsubr
          101 228 -103 callgsubr
        </CharString>
        <CharString name="odieresis">
          -46 -10 20 hstem
          170 53 -2 31 70 53 -104 callsubr
          98 306 -106 callsubr
        </CharString>
        <CharString name="oe">
          152 -10 20 1 -20 201 27 152 -20 hstemhm
          32 callgsubr
          hintmask 10111000
          431 -33 callgsubr
          -59 -35 -16 -65 -28 hvcurveto
          50 -7 -25 62 -20 hhcurveto
          -7 -6 -9 -12 -54 callsubr
          -17 -2 -16 -14 vvcurveto
          -57 25 -26 34 33 41 25 43 35 vhcurveto
          -48 3 39 -11 24 hhcurveto
          42 99 90 37 5 31 callsubr
          hvcurveto
          -81 callgsubr
          -198 -39 rmoveto
          hintmask 01111000
          -83 callgsubr
          162 -9 -11 callgsubr
        </CharString>
        <CharString name="ogonek">
          -73 -152 28 hstem
          38 32 vstem
          201 -110 rmoveto
          5 -5 4 -6 vhcurveto
          -7 -40 -23 -28 hhcurveto
          -25 -20 14 27 27 19 40 15 21 hvcurveto
          -3 3 rlineto
          -32 -1 -31 -90 -27 vvcurveto
          -31 28 -11 27 18 90 22 20 vhcurveto
          endchar
        </CharString>
        <CharString name="ograve">
          -93 callgsubr
          -104 318 -99 callsubr
        </CharString>
        <CharString name="one">
          -32 11 -20 63 25 190 33 320 -20 53 19 hstem
          -14 37 447 35 vstem
          250 -16 callgsubr
          -43 -42 -50 -26 -6 -2 -1 -6 1 -4 rrcurveto
          -5 1 4 -3 4 hhcurveto
          -32 callgsubr
          hvcurveto
          35 17 31 19 30 21 rrcurveto
          -61 callsubr
          -22 -20 -42 -58 callgsubr
          16 19 17 13 2 vhcurveto
          2 16 14 41 -13 5 4 16 9 14 6 21 34 117 48 84 22 41 rrcurveto
          endchar
        </CharString>
        <CharString name="onehalf">
          708 -37 29 332 19 143 -6 callsubr
          575 23 vstem
          887 234 -69 callsubr
          -760 93 rmoveto
          206 339 rlineto
          1 1 47 callsubr
          vvcurveto
          6 -9 3 -9 -11 -13 -4 -7 -4 vhcurveto
          -4 -7 -37 -29 -39 -30 -45 -18 rlinecurve
          -4 -1 -2 -4 -3 vvcurveto
          -4 3 -3 26 callgsubr
          0 1 1 vhcurveto
          33 12 29 14 27 16 -55 -100 -71 -135 -33 -57 rrcurveto
          -21 -5 -49 -14 -16 vvcurveto
          -7 4 -10 5 vhcurveto
          1 0 1 1 hhcurveto
          23 -20 callgsubr
          -2 3 -4 -32 -30 -2 -5 -30 hvcurveto
          591 179 -74 callsubr
          endchar
        </CharString>
        <CharString name="onequarter">
          626 177 19 18 30 80 19 119 15 9 -6 callsubr
          516 29 vstem
          614 -74 callgsubr
          -500 290 rmoveto
          206 339 rlineto
          1 1 47 callsubr
          vvcurveto
          6 -9 3 -9 -11 -13 -4 -7 -4 vhcurveto
          -4 -7 -37 -29 -39 -30 -45 -18 rlinecurve
          -4 -1 -2 -4 -3 vvcurveto
          -4 3 -3 26 callgsubr
          0 1 1 vhcurveto
          33 12 29 14 27 16 -55 -100 -71 -135 -33 -57 rrcurveto
          -21 -5 -49 -14 -16 vvcurveto
          -7 4 -10 5 vhcurveto
          1 0 1 1 hhcurveto
          23 -20 callgsubr
          -2 3 -4 -32 -30 -2 -5 -30 hvcurveto
          489 179 -74 callsubr
          -56 -19 callgsubr
        </CharString>
        <CharString name="onesuperior">
          136 324 19 143 -6 callsubr
          vstem
          127 327 rmoveto
          206 339 rlineto
          1 1 47 callsubr
          vvcurveto
          6 -9 3 -9 -11 -13 -4 -7 -4 vhcurveto
          -4 -7 -37 -29 -39 -30 -45 -18 rlinecurve
          -4 -1 -2 -4 -3 vvcurveto
          -4 3 -3 26 callgsubr
          0 1 1 vhcurveto
          33 12 29 14 27 16 -55 -100 -71 -135 -33 -57 rrcurveto
          -21 -5 -49 -14 -16 vvcurveto
          -7 4 -10 5 vhcurveto
          1 0 1 1 hhcurveto
          23 -20 callgsubr
          -2 3 -4 -32 -30 -2 -5 -30 hvcurveto
          endchar
        </CharString>
        <CharString name="ordfeminine">
          22 302 -20 389 -20 hstem
          332 370 -107 callgsubr
          endchar
        </CharString>
        <CharString name="ordmasculine">
          -46 259 20 44 callgsubr
          284 538 -105 callsubr
          endchar
        </CharString>
        <CharString name="oslash">
          -46 -10 20 hstem
          26 14 181 31 vstem
          313 446 rmoveto
          4 -3 -5 2 -2 hhcurveto
          -4 -22 -30 -45 -29 hvcurveto
          -5 21 -5 17 -11 1 -65 callsubr
          -18 -1 -15 -14 vvcurveto
          -32 7 -22 13 -13 vhcurveto
          -12 -30 -7 -26 -21 vvcurveto
          -13 5 -8 8 3 9 5 5 vhcurveto
          2 -8 5 12 vvcurveto
          15 6 17 11 26 vhcurveto
          -3 7 7 -2 8 hhcurveto
          72 111 115 168 hvcurveto
          15 27 12 11 12 -37 -10 -11 51 hvcurveto
          23 36 37 49 13 vvcurveto
          4 -1 2 13 callsubr
          -80 -174 rmoveto
          -142 -92 -119 -48 -8 -7 3 8 -5 vhcurveto
          36 73 58 102 54 89 4 -7 4 -5 4 -2 rrcurveto
          -163 -170 rmoveto
          50 9 67 186 47 hhcurveto
          10 -3 -11 -15 8 hvcurveto
          -47 -80 -56 -99 -39 -80 rrcurveto
          10 vlineto
          11 1 13 3 15 vhcurveto
          endchar
        </CharString>
        <CharString name="otilde">
          -46 -10 20 466 27 -100 callsubr
          109 281 -91 callgsubr
        </CharString>
        <CharString name="p">
          -9 -65 49 155 54 vstem
          322 232 rmoveto
          -18 -4 -19 -8 -17 -5 -13 64 -27 61 -54 38 11 24 rcurveline
          4 8 1 7 4 vvcurveto
          7 -3 3 -5 -16 -35 -28 -19 -3 2 -3 2 -2 vhcurveto
          -3 -31 -5 -13 -46 callsubr
          61 72 36 113 17 -1 19 -4 21 hvcurveto
          27 11 41 6 16 vvcurveto
          2 -2 1 -5 -3 -4 0 -1 -4 vhcurveto
          -93 -49 -2 callgsubr
          20 22 94 61 25 hhcurveto
          -5 16 rmoveto
          -55 -21 -39 -20 -31 -21 rrcurveto
          79 27 32 113 7 hhcurveto
          13 31 -53 -77 15 hvcurveto
          endchar
        </CharString>
        <CharString name="paragraph">
          107 40 callsubr
          218 391 rmoveto
          -178 -19 -167 -102 19 callsubr
          277 6 148 3 101 vhcurveto
          45 0 50 4 vhcurveto
          3 6 -2 5 hhcurveto
          5 3 1 6 20 -46 17 -13 3 hvcurveto
          1 -7 -6 0 -6 hhcurveto
          -79 -39 -72 -69 -63 33 -62 63 14 16 3 7 17 hvcurveto
          60 -263 rmoveto
          -1 -52 -9 -101 -31 19 callsubr
          323 4 134 9 195 vhcurveto
          0 4 6 9 vvcurveto
          20 -23 24 -7 -6 -3 -7 -20 vhcurveto
          -53 2 -53 -53 vvcurveto
          -126 -4 -125 -3 -126 vhcurveto
          endchar
        </CharString>
        <CharString name="parenleft">
          -39 631 47 hstem
          435 678 rmoveto
          -1 hlineto
          -223 -155 -186 -147 -44 hvcurveto
          -20 -67 -10 -68 -60 vvcurveto
          -118 40 -97 74 10 6 5 6 6 -7 7 -17 1 vhcurveto
          -54 13 -21 67 82 vvcurveto
          69 15 80 23 68 vhcurveto
          41 123 130 166 185 3 rrcurveto
          14 27 21 14 6 -4 4 -9 2 hvcurveto
          endchar
        </CharString>
        <CharString name="parenright">
          90 -56 60 644 25 hstem
          366 318 rmoveto
          22 54 17 67 61 vvcurveto
          94 -40 80 -127 -22 -9 -2 -6 -9 16 -11 6 vhcurveto
          8 hlineto
          105 34 -61 -74 -59 -21 -67 -25 -52 hvcurveto
          -1 hlineto
          -155 -75 -126 -175 -115 hhcurveto
          -19 -25 -31 -17 -5 2 -4 5 -2 hvcurveto
          1 hlineto
          141 161 165 209 87 hvcurveto
          endchar
        </CharString>
        <CharString name="partialdiff">
          -9 -10 20 44 callgsubr
          109 638 rmoveto
          -55 -26 -34 -49 -8 2 -3 2 4 5 7 5 1 hvcurveto
          28 7 30 16 15 hhcurveto
          75 52 -163 -57 3 hvcurveto
          -9 callgsubr
          104 90 181 147 173 -37 150 -123 vhcurveto
          112 -454 rmoveto
          -99 -26 -65 -74 -37 hhcurveto
          -16 -12 15 33 12 2 14 3 17 hvcurveto
          52 10 68 196 50 hhcurveto
          28 8 -35 -34 -38 -9 -43 -4 -16 hvcurveto
          endchar
        </CharString>
        <CharString name="percent">
          289 -70 26 200 68 93 26 201 68 hstem
          81 40 130 40 vstem
          -52 callgsubr
          -71 callgsubr
          -35 29 callsubr
          10 callsubr
          vhcurveto
          0 19 -30 15 -9 vhcurveto
          endchar
        </CharString>
        <CharString name="period">
          -60 77 53 vstem
          177 75 -29 callsubr
          endchar
        </CharString>
        <CharString name="periodcentered">
          -34 42 22 341 29 2 314 hstem
          35 21 12 33 -24 53 vstem
          174 354 -51 callgsubr
          -26 -35 -32 -29 -16 3 -16 18 hvcurveto
          13 3 19 5 17 7 14 37 21 vvcurveto
          endchar
        </CharString>
        <CharString name="perthousand">
          479 -77 -21 28 26 200 68 94 25 164 27 10 68 hstemhm
          81 41 -41 230 -213 24 129 40 -40 230 17 40 -40 230 hintmask 1111110100010000
          -52 callgsubr
          hintmask 1111110010110000
          -71 callgsubr
          hintmask 1111110100010000
          -35 29 callsubr
          vhcurveto
          hintmask 1111111001001000
          8 callsubr
          280 28 rmoveto
          -7 1 47 callgsubr
          3 rrcurveto
          2 10 2 10 10 vvcurveto
          25 -47 callgsubr
          145 40 hvcurveto
          29 callgsubr
          vvcurveto
          14 5 5 8 5 -53 callsubr
          1 vhcurveto
          -33 -28 rmoveto
          -35 29 callsubr
          vhcurveto
          hintmask 1111111001010000
          8 callsubr
          endchar
        </CharString>
        <CharString name="pi">
          31 -10 20 226 26 hstem
          332 290 rmoveto
          3 -1 1 -1 vhcurveto
          -19 -26 -25 -13 -17 -34 -76 24 -28 hhcurveto
          -35 -35 -20 -32 -34 hvcurveto
          -7 -5 -1 -6 -2 -5 rrcurveto
          -3 -20 callsubr
          vhcurveto
          4 hlineto
          25 25 33 15 34 hhcurveto
          2 hlineto
          -14 -79 -11 -64 -14 -41 -37 -78 rlinecurve
          -1 2 -1 4 30 44 167 25 7 vhcurveto
          7 25 5 24 3 23 68 -14 rcurveline
          -22 -50 -28 -77 -68 vvcurveto
          -23 9 -12 17 vhcurveto
          5 5 2 4 1 0 -1 1 hhcurveto
          10 4 11 -1 1 -3 3 -5 -3 -2 0 -1 -3 hvcurveto
          -12 -5 9 18 hvcurveto
          -1 29 11 35 15 39 32 82 rcurveline
          28 70 25 29 hvcurveto
          endchar
        </CharString>
        <CharString name="plus">
          72 8 -21 165 30 136 -20 hstem
          356 179 -60 callgsubr
          endchar
        </CharString>
        <CharString name="plusminus">
          72 18 30 -8 -21 236 30 136 -20 hstemhm
          hintmask 10110000
          391 282 -60 callgsubr
          -90 -233 -31 callgsubr
          1 4 callsubr
          2 -1 3 -5 -6 -24 -9 -24 -5 4 -7 6 vhcurveto
          hintmask 01110000
          2 26 callgsubr
          hhcurveto
          hintmask 10110000
          -22 callgsubr
        </CharString>
        <CharString name="product">
          161 -26 20 6 20 306 42 hstem
          210 30 vstem
          452 374 rmoveto
          1 1 0 1 1 vvcurveto
          2 36 callgsubr
          vhcurveto
          -32 -47 -32 -11 -27 -40 -93 31 -37 hhcurveto
          -48 -48 -20 -50 -52 hvcurveto
          -9 -4 -5 -7 -2 -9 rrcurveto
          -4 1 -2 3 6 40 31 9 21 vhcurveto
          8 20 21 6 22 hhcurveto
          4 hlineto
          -27 -161 -9 -49 -68 -140 8 -2 rcurveline
          2 2 0 1 1 hvcurveto
          5 3 43 75 58 145 21 128 rlinecurve
          54 -11 16 -3 13 -3 9 -3 rlinecurve
          -31 -65 -19 -77 -14 -90 rrcurveto
          -1 -9 -1 -8 -8 vvcurveto
          -32 13 -17 27 vhcurveto
          8 4 28 2 10 vvcurveto
          3 -5 2 -6 -4 -4 0 -1 -3 vhcurveto
          -16 -8 12 24 hvcurveto
          -1 32 13 49 22 55 44 112 rcurveline
          43 91 30 40 hvcurveto
          endchar
        </CharString>
        <CharString name="q">
          4 381 -20 hstem
          353 296 rmoveto
          7 15 12 26 19 vvcurveto
          15 -7 10 -20 vhcurveto
          -16 -3 -16 -9 -10 -5 callgsubr
          -61 callgsubr
          -66 -128 -251 -89 -21 6 -10 17 57 111 131 54 43 hvcurveto
          -30 -79 -88 -229 -68 vvcurveto
          -18 2 8 -7 13 hhcurveto
          39 76 66 18 21 hvcurveto
          3 1 6 12 8 vvcurveto
          4 -2 3 -3 vhcurveto
          -12 -52 -71 -33 hhcurveto
          -7 -4 5 13 7 1 9 3 12 hvcurveto
          34 149 56 131 59 140 2 5 15 3 2 5 rrcurveto
          -55 50 rmoveto
          3 hlineto
          3 1 -1 -4 -20 -41 -75 -35 -54 hvcurveto
          -14 -11 -111 -134 -33 hhcurveto
          -5 -4 4 10 75 133 208 25 5 hvcurveto
          4 12 9 1 9 18 13 -5 14 hhcurveto
          endchar
        </CharString>
        <CharString name="question">
          157 656 -20 hstem
          105 52 vstem
          151 532 rmoveto
          -13 -18 -6 -18 -16 vvcurveto
          -40 33 -30 27 10 13 5 11 vhcurveto
          11 -32 -18 64 vvcurveto
          83 106 52 102 77 31 -32 -43 -145 -264 -98 -47 -59 vhcurveto
          -18 -23 -6 -22 -15 vvcurveto
          -19 9 -13 9 4 4 3 4 3 vhcurveto
          1 hlineto
          16 32 6 45 50 32 rrcurveto
          161 103 137 85 98 vvcurveto
          76 -63 30 -73 -99 -125 -53 -72 -53 vhcurveto
          -44 -521 rmoveto
          -1 vlineto
          -14 1 -24 15 34 1 25 63 12 vhcurveto
          1 36 callgsubr
          -13 -47 -26 -25 vhcurveto
          endchar
        </CharString>
        <CharString name="questiondown">
          157 337 52 vstem
          344 -125 rmoveto
          13 18 6 18 16 vvcurveto
          40 -33 30 -27 -10 -13 -5 -11 vhcurveto
          -11 32 18 -64 vvcurveto
          -83 -106 -52 -102 -77 -31 32 43 145 264 98 47 59 vhcurveto
          18 22 6 22 16 vvcurveto
          19 -9 13 -9 -4 -4 -3 -4 -3 vhcurveto
          -1 hlineto
          -16 -32 -6 -45 -50 -32 rrcurveto
          -161 -103 -137 -85 -98 vvcurveto
          -76 63 -30 73 99 125 53 72 53 vhcurveto
          44 521 -7 callsubr
          endchar
        </CharString>
        <CharString name="quotedbl">
          99 648 -20 hstem
          -77 callsubr
        </CharString>
        <CharString name="quotedblbase">
          140 17 -21 242 -20 hstem
          396 231 rmoveto
          -66 callgsubr
          -167 hmoveto
          -66 callgsubr
          endchar
        </CharString>
        <CharString name="quotedblleft">
          -32 402 20 hstem
          42 81 52 80 -40 callgsubr
          132 8 rmoveto
          1 vlineto
          3 -2 1 -3 -22 -96 -64 -113 -36 vhcurveto
          -3 -9 -7 -2 -13 vvcurveto
          -4 2 -38 19 18 25 23 0 vhcurveto
          -1 vlineto
          -23 callgsubr
          endchar
        </CharString>
        <CharString name="quotedblright">
          99 404 235 hstem
          177 81 50 80 vstem
          -77 callsubr
        </CharString>
        <CharString name="quoteleft">
          -86 402 20 hstem
          42 81 -40 callgsubr
          endchar
        </CharString>
        <CharString name="quoteright">
          -49 callgsubr
          -1 1 rlineto
          3 10 7 2 49 callgsubr
          -2 10 -5 16 vhcurveto
          endchar
        </CharString>
        <CharString name="quotesinglbase">
          -52 17 -21 242 -20 hstem
          229 231 rmoveto
          -66 callgsubr
          endchar
        </CharString>
        <CharString name="quotesingle">
          -49 callgsubr
          6 6 4 9 12 vvcurveto
          9 -2 11 -6 12 vhcurveto
          endchar
        </CharString>
        <CharString name="r">
          -37 14 -20 394 -20 hstem
          295 295 rmoveto
          15 21 8 24 18 vvcurveto
          17 -8 13 -16 -70 -121 -198 -50 -25 vhcurveto
          23 103 53 114 11 28 rrcurveto
          5 -1 -6 3 -7 hhcurveto
          -44 -16 -27 -82 -21 hvcurveto
          -2 -5 0 -4 -2 -8 4 1 -10 42 callsubr
          -7 vhcurveto
          -8 -31 3 3 -36 -138 rrcurveto
          -13 -5 -10 -35 -35 3 callgsubr
          3 -2 4 hhcurveto
          12 21 13 11 8 hvcurveto
          136 43 115 183 47 hhcurveto
          4 1 -2 -5 hvcurveto
          -16 -19 -35 -10 vvcurveto
          -4 2 -2 4 10 22 18 14 10 vhcurveto
          endchar
        </CharString>
        <CharString name="radical">
          154 14 -21 264 41 386 -20 hstem
          464 659 rmoveto
          1 1 2 1 vvcurveto
          10 -12 11 -12 -5 -4 -1 -4 -4 vhcurveto
          -106 -103 -100 -404 -11 -110 rrcurveto
          101 -18 -45 135 -47 hhcurveto
          -3 -4 -1 -1 -3 hvcurveto
          -9 -4 -36 -33 -30 -95 rrcurveto
          -1 -1 0 -2 -1 vvcurveto
          -8 4 -12 3 1 1 1 3 1 vhcurveto
          80 20 34 33 5 hhcurveto
          25 26 -70 -26 10 hvcurveto
          19 -50 9 -36 8 -54 rrcurveto
          -9 1 22 -19 12 hhcurveto
          4 3 3 5 1 hvcurveto
          28 337 158 244 54 77 rrcurveto
          endchar
        </CharString>
        <CharString name="registered">
          331 29 21 377 12 83 -20 hstem
          41 36 387 25 53 38 vstem
          260 317 rmoveto
          129 82 107 89 65 -43 56 -99 -128 -75 -105 -89 -66 41 -57 93 hvcurveto
          72 307 rmoveto
          79 34 -48 -58 -53 -28 -60 -47 -38 hvcurveto
          47 callgsubr
          0 -2 -3 -3 -1 -3 hhcurveto
          -29 -43 61 29 -24 hvcurveto
          -3 -10 callgsubr
          2 vvcurveto
          2 3 0 7 49 72 18 64 41 -62 -4 -30 3 vhcurveto
          2 5 7 9 4 vvcurveto
          2 -8 callsubr
          -23 -6 -22 -17 -2 vhcurveto
          -9 -22 -14 -35 -9 -32 rrcurveto
          -7 -2 -3 -1 -2 vvcurveto
          -2 3 -4 4 -5 vhcurveto
          -12 -41 -13 -29 -23 vvcurveto
          -3 4 -1 5 14 6 61 26 7 vhcurveto
          8 -13 24 -39 46 -42 25 -1 rlinecurve
          7 6 0 1 4 hvcurveto
          -20 -28 -33 -12 -37 hhcurveto
          -83 -35 47 57 85 78 107 108 hvcurveto
          34 -94 rmoveto
          -41 -14 -46 -15 -35 hhcurveto
          -8 -8 0 2 -6 hvcurveto
          6 20 24 66 11 17 rrcurveto
          1 hlineto
          38 -2 39 -3 -30 42 callsubr
          -5 vhcurveto
          endchar
        </CharString>
        <CharString name="ring">
          -78 433 45 callgsubr
          43 37 72 24 vstem
          176 527 -28 callsubr
        </CharString>
        <CharString name="s">
          -53 -65 callgsubr
          endchar
        </CharString>
        <CharString name="scaron">
          -72 -65 callgsubr
          -112 207 -72 callgsubr
          -49 callsubr
        </CharString>
        <CharString name="section">
          319 -250 32 -32 114 772 37 hstemhm
          37 42 107 42 126 54 95 54 -3 35 hintmask 10111101
          229 473 -26 callsubr
          -17 3 -17 7 -15 vhcurveto
          -92 -39 -67 -73 -77 1 callsubr
          hintmask 01111110
          5 callgsubr
          163 148 111 106 19 -8 16 -12 13 vhcurveto
          94 38 75 80 73 vvcurveto
          34 callsubr
          -149 -238 16 callsubr
          63 66 48 66 25 vhcurveto
          82 -105 210 9 -109 vvcurveto
          -63 -66 -55 -68 -24 vhcurveto
          -25 18 -33 15 -33 13 -80 32 -106 27 -12 97 rrcurveto
          endchar
        </CharString>
        <CharString name="semicolon">
          -105 145 53 vstem
          212 255 rmoveto
          1 vlineto
          2 -1 -17 callsubr
          -25 -34 -32 -28 -16 1 -17 19 hvcurveto
          36 9 -4 13 14 67 rrcurveto
          -50 -189 -3 callsubr
          -15 14 -10 -13 vvcurveto
          -29 -50 -53 -24 -36 vhcurveto
          -1 vlineto
          -5 3 -2 5 24 66 45 107 33 vhcurveto
          21 callgsubr
          endchar
        </CharString>
        <CharString name="seven">
          113 -15 20 595 44 hstem
          121 29 vstem
          149 58 rmoveto
          63 73 73 84 158 130 rrcurveto
          2 1 0 2 3 vvcurveto
          10 -1 -21 18 -12 hhcurveto
          -8 -15 -14 -8 -10 hvcurveto
          5 -28 -108 12 -69 hhcurveto
          -56 -39 -23 -34 -21 hvcurveto
          9 28 15 37 -12 -1 -14 -1 -20 -57 -2 -7 rrcurveto
          -8 -23 -8 -19 -21 vvcurveto
          -12 9 -8 10 9 9 6 11 4 vhcurveto
          82 27 67 11 42 hhcurveto
          69 55 -2 -5 45 hvcurveto
          -119 -108 -72 -85 -54 -72 rrcurveto
          -40 -55 -51 -95 -71 vvcurveto
          -13 0 -17 15 5 5 3 5 vhcurveto
          5 -1 5 5 vvcurveto
          65 58 103 40 47 vhcurveto
          endchar
        </CharString>
        <CharString name="six">
          256 -19 26 205 35 hstem
          50 36 449 59 vstem
          493 591 rmoveto
          -157 -101 -275 -205 -8 -187 rrcurveto
          -71 -3 48 -23 52 hhcurveto
          140 197 111 143 21 hvcurveto
          8 65 -33 25 -42 1 -139 4 -130 -178 3 -114 rrcurveto
          -18 19 -2 2 21 vhcurveto
          10 109 118 160 111 -12 43 -4 -2 -65 -35 -53 rrcurveto
          -93 -62 -102 -74 -111 hhcurveto
          -36 -33 23 49 2 hvcurveto
          5 146 168 157 159 95 26 12 59 37 6 18 6 19 4 30 -39 -25 rrcurveto
          endchar
        </CharString>
        <CharString name="slash">
          297 27 27 vstem
          580 690 rmoveto
          6 -5 -10 2 -4 hhcurveto
          -20 -521 -617 -173 42 callgsubr
          hvcurveto
          4 -14 7 18 vvcurveto
          81 352 463 171 196 vhcurveto
          6 7 3 7 5 vvcurveto
          5 -3 38 callgsubr
          vhcurveto
          endchar
        </CharString>
        <CharString name="space">
          -107 endchar
        </CharString>
        <CharString name="sterling">
          510 -3 28 370 35 68 17 hstem
          181 56 vstem
          602 660 rmoveto
          58 32 -31 -43 hvcurveto
          -46 -37 -18 -6 vvcurveto
          -4 7 -2 7 21 27 23 50 54 -44 42 -58 -194 -41 -273 -77 -34 vhcurveto
          -25 -29 1 -27 hhcurveto
          -17 -21 0 -18 -15 26 2 25 hvcurveto
          24 25 1 13 hhcurveto
          -31 -96 -67 -133 -23 -29 rrcurveto
          19 -58 -25 6 -30 hhcurveto
          -42 -24 -17 -35 -25 14 -8 9 5 4 2 3 36 22 9 26 35 53 -17 -13 38 hvcurveto
          -38 111 122 -47 125 hhcurveto
          90 79 49 101 53 -29 33 -22 -7 -5 -5 -4 hvcurveto
          -5 38 -19 -60 vvcurveto
          -70 -74 -36 -61 -106 -168 31 46 -95 vhcurveto
          55 61 52 139 29 71 rrcurveto
          17 61 -2 50 hhcurveto
          24 11 5 6 20 -131 -2 -26 hvcurveto
          106 40 48 225 128 hhcurveto
          endchar
        </CharString>
        <CharString name="summation">
          89 0 30 372 30 hstem
          370 hmoveto
          -26 30 rlineto
          -266 hlineto
          202 196 -150 184 rlineto
          222 hlineto
          18 22 rlineto
          -318 hlineto
          180 -218 -212 -214 rlineto
          endchar
        </CharString>
        <CharString name="t">
          -76 14 -20 343 35 hstem
          151 375 rmoveto
          9 callgsubr
          -15 -54 -20 -83 -29 -92 rrcurveto
          -8 -26 -16 -41 -27 vvcurveto
          -17 6 -12 17 36 72 64 19 21 vhcurveto
          6 3 5 11 8 vvcurveto
          3 -1 3 -4 vhcurveto
          -12 -53 -71 -35 hhcurveto
          -6 -5 5 12 7 2 10 3 12 hvcurveto
          18 75 36 119 27 76 27 callgsubr
          -97 hlineto
          28 77 25 60 8 17 rrcurveto
          6 -1 -6 3 -9 hhcurveto
          -44 -15 -23 -83 15 callsubr
          4 0 -8 vvcurveto
          -4 -1 -5 -2 -8 vhcurveto
          endchar
        </CharString>
        <CharString name="thorn">
          -88 40 callsubr
          246 287 rmoveto
          -16 36 -23 32 -33 23 2 5 81 229 4 9 rrcurveto
          4 9 2 7 4 vvcurveto
          6 -3 2 -4 -43 -19 -103 -170 -63 vhcurveto
          -1 -4 -30 -3 -14 -46 callsubr
          101 31 76 76 52 -14 54 -16 38 hvcurveto
          -17 -104 -2 callgsubr
          79 28 42 148 6 hhcurveto
          13 36 -68 -78 16 hvcurveto
          endchar
        </CharString>
        <CharString name="three">
          183 261 18 74 27 193 39 hstem
          32 72 578 63 vstem
          324 183 rmoveto
          61 12 91 62 62 vvcurveto
          46 -33 14 -42 -55 -70 -25 -13 -32 vhcurveto
          4 5 7 5 7 vvcurveto
          4 -2 3 -3 -6 -52 -44 -6 -12 vhcurveto
          -10 -5 -6 -15 -11 vvcurveto
          -5 2 -4 4 1 3 47 callsubr
          vhcurveto
          30 45 90 38 56 hhcurveto
          37 18 -17 -21 -94 -148 -30 -81 -15 -10 -14 -11 -8 5 -7 11 hvcurveto
          21 42 16 39 hhcurveto
          90 29 -46 -55 -123 -126 -93 -134 -64 -41 28 59 66 66 41 52 7 4 2 4 4 -3 5 -8 -78 -83 -47 -80 -72 50 -32 87 172 154 118 134 64 -34 46 -102 1 hvcurveto
          endchar
        </CharString>
        <CharString name="threequarters">
          722 177 19 18 30 218 15 3 22 callgsubr
          476 29 vstem
          714 -74 callgsubr
          -407 494 -70 callsubr
          424 -25 -74 callsubr
          -84 -19 callgsubr
        </CharString>
        <CharString name="threesuperior">
          301 480 22 callgsubr
          vstem
          320 531 -70 callsubr
          endchar
        </CharString>
        <CharString name="tilde">
          -35 464 27 hstem
          399 541 -91 callgsubr
        </CharString>
        <CharString name="trademark">
          349 387 21 hstem
          634 597 rmoveto
          7 -2 20 -10 vhcurveto
          -13 -107 -216 -51 -71 13 225 -27 hhcurveto
          -31 8 -64 -20 -6 hvcurveto
          -9 -30 -75 -175 1 -9 rrcurveto
          -6 7 -1 4 49 10 135 59 28 vhcurveto
          -40 11 25 -95 53 hhcurveto
          45 81 100 35 27 hvcurveto
          -12 -55 -6 -56 -14 -54 rrcurveto
          -1 -2 0 -3 -3 vvcurveto
          -6 5 -3 6 11 18 7 10 6 vhcurveto
          7 12 4 131 3 26 rrcurveto
          2 21 11 32 18 vvcurveto
          -297 38 rmoveto
          8 -17 0 -5 -37 -239 -10 -20 -12 vhcurveto
          -10 3 13 -3 9 24 24 5 24 hhcurveto
          5 23 0 -9 -9 -9 -24 -3 -9 hvcurveto
          -14 -35 -73 -161 -23 vvcurveto
          -10 11 -3 7 47 21 184 88 48 vhcurveto
          14 26 136 -9 24 vvcurveto
          endchar
        </CharString>
        <CharString name="two">
          103 -49 38 hstem
          645 31 vstem
          392 321 rmoveto
          46 3 -33 14 -42 hhcurveto
          -55 -71 -25 -13 -33 hvcurveto
          5 5 7 5 7 vvcurveto
          4 1 -2 3 -3 hhcurveto
          -6 -55 -44 -6 -12 hvcurveto
          -10 -5 -7 -15 -11 vvcurveto
          -5 -1 2 -4 4 hhcurveto
          1 3 47 callsubr
          hvcurveto
          30 47 92 38 56 hhcurveto
          37 17 -17 -21 -1 hvcurveto
          -5 -94 -141 -105 -105 -49 -22 -8 -46 -16 -3 -19 -3 -13 3 -17 8 3 39 15 60 9 48 8 rrcurveto
          7 45 44 6 44 hhcurveto
          29 24 -9 -24 callsubr
          -62 -92 -15 -13 -39 vhcurveto
          95 60 188 113 5 108 rrcurveto
          endchar
        </CharString>
        <CharString name="twosuperior">
          240 247 29 hstem
          512 23 vstem
          428 518 -69 callsubr
          endchar
        </CharString>
        <CharString name="u">
          -101 callgsubr
          endchar
        </CharString>
        <CharString name="uacute">
          -101 callgsubr
          32 193 -99 callgsubr
        </CharString>
        <CharString name="ucircumflex">
          -101 callgsubr
          9 116 -103 callgsubr
        </CharString>
        <CharString name="udieresis">
          7 callsubr
          212 4 callgsubr
          -105 callgsubr
          14 194 -106 callsubr
        </CharString>
        <CharString name="ugrave">
          -101 callgsubr
          -178 196 -99 callsubr
        </CharString>
        <CharString name="underscore">
          21 -17 21 hstem
          341 -15 rmoveto
          16 vlineto
          -2 3 rlineto
          -338 hlineto
          -3 -3 rlineto
          -16 vlineto
          3 -2 rlineto
          338 hlineto
          endchar
        </CharString>
        <CharString name="uni00AD">
          -50 callsubr
        </CharString>
        <CharString name="v">
          42 -11 20 394 -20 hstem
          347 354 rmoveto
          2 11 1 9 8 vvcurveto
          15 -5 6 -6 -20 -36 -48 -15 vhcurveto
          -11 8 -9 -13 vvcurveto
          -4 -1 -4 -1 -4 vhcurveto
          -50 -159 -115 -78 -17 -17 9 104 16 107 13 104 rrcurveto
          6 -3 -7 3 -9 hhcurveto
          -42 -7 -26 -61 hvcurveto
          -49 12 26 -39 vvcurveto
          -6 -261 -32 74 -35 3 callgsubr
          -2 4 58 201 199 166 31 vhcurveto
          endchar
        </CharString>
        <CharString name="w">
          186 332 47 hstem
          89 31 368 46 vstem
          534 361 rmoveto
          17 -6 40 -20 -5 -5 -3 -6 -7 vhcurveto
          -1 hlineto
          -7 -8 -3 -8 -7 -13 8 -12 -12 vvcurveto
          -75 -5 -92 -164 -16 hhcurveto
          -3 -30 148 56 -18 hvcurveto
          -6 17 -4 11 1 6 rrcurveto
          5 2 5 5 vvcurveto
          13 -8 9 -11 -6 -8 -3 -8 -6 vhcurveto
          -32 -105 -180 -37 -20 hvcurveto
          1 17 2 31 33 vvcurveto
          66 -7 75 -34 -18 -48 -41 -19 -2 1 13 callsubr
          8 18 16 4 hhcurveto
          18 24 -27 -91 -67 -15 -57 -27 -66 hvcurveto
          -1 -1 0 -2 -1 vvcurveto
          -15 20 -24 14 5 4 3 8 2 vhcurveto
          58 120 242 49 29 vhcurveto
          39 -94 16 -103 -73 -9 -1 -9 -8 vvcurveto
          -15 17 -21 14 4 4 2 5 3 vhcurveto
          18 58 -6 -2 32 51 rrcurveto
          68 109 63 138 11 vvcurveto
          endchar
        </CharString>
        <CharString name="x">
          -25 384 -20 hstem
          98 21 101 49 vstem
          322 335 rmoveto
          7 5 6 16 13 vvcurveto
          9 -3 6 -8 -18 -104 -115 -30 -16 vhcurveto
          22 -4 -33 117 -26 hhcurveto
          -1 hlineto
          -9 -13 -32 -1 -24 hvcurveto
          -6 -27 -16 -4 1 hvcurveto
          -9 1 5 -3 8 7 9 2 10 hhcurveto
          45 17 -104 -8 2 hvcurveto
          -43 -65 -180 -178 -53 vvcurveto
          -13 5 -5 4 7 9 11 9 5 vhcurveto
          57 101 75 75 70 92 rrcurveto
          -65 23 16 -156 9 hhcurveto
          19 20 38 12 hvcurveto
          38 -52 162 8 vvcurveto
          2 21 22 27 27 vhcurveto
          7 6 58 61 5 hhcurveto
          0 1 18 callgsubr
          26 callgsubr
          6 vhcurveto
          endchar
        </CharString>
        <CharString name="y">
          44 callsubr
          -91 callsubr
          endchar
        </CharString>
        <CharString name="yacute">
          44 callsubr
          -91 callsubr
          163 vmoveto
          -100 callgsubr
        </CharString>
        <CharString name="ydieresis">
          44 callsubr
          176 4 callgsubr
          -91 callsubr
          -27 160 -106 callsubr
        </CharString>
        <CharString name="yen">
          213 139 36 57 33 402 -20 hstemhm
          30 63 vstemhm
          227 175 rmoveto
          -1 -20 -19 0 -16 hhcurveto
          3 19 4 20 4 19 rrcurveto
          80 5 76 11 11 vvcurveto
          4 -8 2 -17 vhcurveto
          -5 -100 12 2 -36 hhcurveto
          2 8 3 8 2 6 -76 callsubr
          -3 0 -5 -4 vvcurveto
          1 -21 -20 1 -20 -4 callgsubr
          12 0 13 hhcurveto
          19 21 1 1 21 hvcurveto
          -2 -20 -9 -34 1 1 rrcurveto
          1 -23 -21 1 -21 -4 callgsubr
          11 0 13 hhcurveto
          18 20 1 1 21 hvcurveto
          -16 -55 -16 -33 -23 -41 rrcurveto
          -2 vlineto
          hintmask 11110000
          46 callgsubr
          83 -14 62 82 14 vhcurveto
          78 5 77 11 11 vvcurveto
          4 -8 2 -17 -21 -49 -3 1 vhcurveto
          endchar
        </CharString>
        <CharString name="z">
          -71 callsubr
          endchar
        </CharString>
        <CharString name="zcaron">
          -71 callsubr
          -162 227 -72 callgsubr
          -49 callsubr
        </CharString>
        <CharString name="zero">
          11 -10 20 607 18 44 callgsubr
          216 382 rmoveto
          -122 -61 -229 -88 -63 28 -22 39 109 77 169 131 63 -20 39 -50 hvcurveto
          23 -194 rmoveto
          -81 -22 -45 -95 -60 hhcurveto
          -23 -9 26 37 95 70 170 68 28 8 -27 -32 -37 -11 -44 -4 -12 hvcurveto
          endchar
        </CharString>
      <CharString index="0">
        rmoveto
        5 4 5 13 6 vvcurveto
        3 -1 1 -1 vhcurveto
        -4 -50 -68 -32 hhcurveto
        -8 -6 7 18 16 23 111 33 92 hvcurveto
        2 5 15 3 2 5 rrcurveto
        6 16 15 28 19 vvcurveto
        13 -90 callsubr
        57 96 -54 callgsubr
        -18 3 9 -7 13 hhcurveto
        36 62 60 18 20 hvcurveto
        -66 266 -95 callgsubr
        return
      </CharString>
      <CharString index="1">
        -96 callgsubr
        -27 callgsubr
        vhcurveto
        -235 246 -87 callgsubr
        -261 -48 -84 callgsubr
        -229 -192 -133 -156 -59 callsubr
        vhcurveto
        return
      </CharString>
      <CharString index="2">
        -94 callgsubr
        -39 -62 -126 -15 -36 vhcurveto
        -7 -18 -4 -14 -11 vvcurveto
        -11 5 -7 9 60 143 187 56 38 vhcurveto
        -13 -51 -46 -167 -9 -21 rrcurveto
        -10 -22 -27 -12 -13 vvcurveto
        -6 6 -5 7 21 24 38 16 21 vhcurveto
        15 11 91 49 16 vvcurveto
        4 -5 1 -3 -23 -44 -49 -1 -18 vhcurveto
        -1 -1 1 2 22 37 128 22 63 hvcurveto
        22 64 24 60 7 22 rrcurveto
        return
      </CharString>
      <CharString index="3">
        hstem
        62 48 413 31 149 46 vstem
        -106 callgsubr
        return
      </CharString>
      <CharString index="4">
        -83 callsubr
        92 -8 3 -14 -3 -102 -99 -90 callgsubr
      </CharString>
      <CharString index="5">
        263 -33 callgsubr
        -47 -37 -10 -43 -23 hvcurveto
        -25 -46 -10 -23 -11 -22 rrcurveto
        -7 hlineto
        -7 -10 -2 -9 -10 11 -5 4 -1 hvcurveto
        -3 -22 -15 -29 -13 -67 rrcurveto
        -2 -10 -1 -8 -8 -87 callsubr
        -36 -48 -69 callgsubr
        return
      </CharString>
      <CharString index="6">
        7 callsubr
        -105 callgsubr
        return
      </CharString>
      <CharString index="7">
        -53 callgsubr
        15 -64 callsubr
        -59 -88 callsubr
      </CharString>
      <CharString index="8">
        rmoveto
        -100 callgsubr
      </CharString>
      <CharString index="9">
        -66 -107 rrcurveto
        -50 -76 callgsubr
        23 9 8 callgsubr
        -43 -75 -42 -88 -16 -91 rrcurveto
        -1 -8 -1 -5 -3 vvcurveto
        -9 7 2 12 9 10 1 10 1 vhcurveto
        13 92 46 92 45 82 rrcurveto
        103 115 2 1 102 hvcurveto
        5 -34 15 -167 -56 vvcurveto
        -12 vlineto
        return
      </CharString>
      <CharString index="10">
        11 callsubr
        145 -20 -104 callgsubr
        return
      </CharString>
      <CharString index="11">
        749 371 rmoveto
        150 -87 74 -131 19 vhcurveto
        -95 callsubr
        return
      </CharString>
      <CharString index="12">
        -85 callgsubr
        109 199 30 8 hvcurveto
        3 12 9 1 9 18 13 -4 14 hhcurveto
        return
      </CharString>
      <CharString index="13">
        359 384 rmoveto
        6 -1 -5 3 -6 hhcurveto
        -53 -18 -68 -29 -1 hvcurveto
        -42 -77 -56 -79 -78 -60 rrcurveto
        -8 -10 -9 -8 -5 hhcurveto
        -2 -1 1 3 23 107 254 13 32 hvcurveto
        6 -2 -6 3 -9 hhcurveto
        -48 -12 -23 -82 -22 hvcurveto
        -1 -5 -1 -3 -3 -7 4 -1 -9 vvcurveto
        return
      </CharString>
      <CharString index="14">
        -46 -10 20 -100 callsubr
        return
      </CharString>
      <CharString index="15">
        vhcurveto
        258 hlineto
        -82 callgsubr
        -2 -40 -167 -1 -79 hhcurveto
        9 72 24 131 21 71 -86 callgsubr
        return
      </CharString>
      <CharString index="16">
        rmoveto
        3 -4 1 -2 vhcurveto
        -13 -11 -13 -8 -18 -81 callsubr
        -47 callsubr
      </CharString>
      <CharString index="17">
        -9 -11 rrcurveto
        -3 -4 -1 -3 -2 vvcurveto
        -2 -20 callsubr
        4 88 68 20 22 vhcurveto
        14 -21 49 -52 15 -13 rrcurveto
        endchar
      </CharString>
      <CharString index="18">
        -139 -6 20 hstem
        -94 callsubr
        return
      </CharString>
      <CharString index="19">
        hvcurveto
        11 3 16 4 14 6 12 31 18 vvcurveto
        return
      </CharString>
      <CharString index="20">
        rmoveto
        3 -26 -28 1 -28 hhcurveto
        -54 -54 -6 -12 -39 hvcurveto
        39 49 86 33 65 hhcurveto
        24 14 -6 -18 -9 -3 -11 -6 -14 hvcurveto
        return
      </CharString>
      <CharString index="21">
        rrcurveto
        -1 59 29 -1 35 14 15 8 callgsubr
        22 46 0 -2 17 hvcurveto
        -2 19 5 -24 10 hhcurveto
        14 17 30 14 8 -4 7 -11 hvcurveto
        return
      </CharString>
      <CharString index="22">
        rmoveto
        3 hlineto
        3 2 -2 -4 -21 -35 -75 -32 -52 hvcurveto
        -14 -9 -103 -134 -33 hhcurveto
        -6 -4 5 12 78 return
      </CharString>
      <CharString index="23">
        rmoveto
        -86 callsubr
        107 -14 75 -95 -117 vvcurveto
        return
      </CharString>
      <CharString index="24">
        -80 callgsubr
        10 13 -57 -9 17 hvcurveto
        return
      </CharString>
      <CharString index="25">
        26 4 12 16 8 -53 callsubr
        vhcurveto
        return
      </CharString>
      <CharString index="26">
        -12 -64 -106 -47 hhcurveto
        -20 -10 13 27 32 13 49 20 51 hvcurveto
        5 14 -1 17 hhcurveto
        35 98 8 63 13 -2 16 -4 21 hvcurveto
        return
      </CharString>
      <CharString index="27">
        -141 -92 -120 -47 -17 -11 15 34 11 1 14 3 17 vhcurveto
        50 9 67 186 47 hhcurveto
        return
      </CharString>
      <CharString index="28">
        -30 callsubr
        10 -6 8 vhcurveto
        95 34 322 68 156 vhcurveto
        -43 callsubr
        -22 vlineto
        -89 -56 -134 -81 -110 vhcurveto
        return
      </CharString>
      <CharString index="29">
        43 callgsubr
        hintmask 10111000
        -102 callsubr
        hintmask 01111000
        -75 callgsubr
        return
      </CharString>
      <CharString index="30">
        -102 callsubr
        -75 callgsubr
        return
      </CharString>
      <CharString index="31">
        hlineto
        -72 callsubr
        return
      </CharString>
      <CharString index="32">
        -66 callsubr
        124 76 78 rlinecurve
        10 -29 45 -144 17 callsubr
        return
      </CharString>
      <CharString index="33">
        35 rmoveto
        -25 -4 -60 -19 -15 vvcurveto
        -8 4 -9 5 vhcurveto
        2 hlineto
        24 -20 callgsubr
        -1 3 -5 -22 -30 -2 -3 -25 hvcurveto
        2 vlineto
        30 46 65 15 26 vhcurveto
        -6 26 27 -6 30 hhcurveto
        25 53 3 36 5 -7 34 -14 -3 -3 -1 -4 hvcurveto
        -5 2 -5 -5 vvcurveto
        -31 -31 -12 -19 -27 -24 6 9 -25 vhcurveto
        50 74 57 68 53 70 rrcurveto
        1 1 0 0 1 vvcurveto
        6 -12 5 -10 -5 -3 -2 -2 -3 vhcurveto
        -42 -56 -204 -106 -83 -41 rrcurveto
        -25 -5 -24 -4 -19 vvcurveto
        -9 5 -8 8 vhcurveto
        5 hlineto
        12 32 55 16 32 hhcurveto
        28 27 -6 -7 25 hvcurveto
        -13 -21 -42 -62 -42 vvcurveto
        -7 vlineto
        return
      </CharString>
      <CharString index="34">
        -55 callsubr
        -17 -64 -17 -109 -13 -106 rrcurveto
        -14 -1 -12 -14 -9 vvcurveto
        -41 callsubr
        vhcurveto
        13 hlineto
        -11 return
      </CharString>
      <CharString index="35">
        rmoveto
        47 callgsubr
        0 -1 hhcurveto
        -3 36 callsubr
        -2 1 18 callsubr
        hvcurveto
        8 -15 56 -92 8 -3 14 3 102 99 9 11 rrcurveto
        3 4 12 callsubr
        return
      </CharString>
      <CharString index="36">
        -5 -13 -14 -43 -28 vvcurveto
        -14 4 -10 11 4 16 6 7 vhcurveto
        3 -11 6 15 vvcurveto
        71 298 391 145 168 vhcurveto
        6 6 2 6 4 vvcurveto
        4 -2 3 -2 2 vhcurveto
        -76 -449 rmoveto
        -7 1 47 callgsubr
        3 rrcurveto
        2 10 2 10 10 vvcurveto
        25 -47 callgsubr
        145 40 hvcurveto
        29 callgsubr
        vvcurveto
        14 5 5 8 5 -53 callsubr
        1 vhcurveto
        -203 360 rmoveto
        -36 29 callsubr
        -18 -2 15 13 49 97 124 38 vhcurveto
        0 19 -31 15 -8 vhcurveto
        170 -388 rmoveto
        return
      </CharString>
      <CharString index="37">
        43 callsubr
        hvcurveto
        -82 callsubr
        return
      </CharString>
      <CharString index="38">
        rmoveto
        -39 -2 -26 -7 -50 -18 -15 2 -7 hhcurveto
        28 11 46 91 31 hhcurveto
        12 18 -21 -54 hvcurveto
        return
      </CharString>
      <CharString index="39">
        8 8 3 5 6 hvcurveto
        118 hlineto
        -82 callgsubr
        -23 -1 -60 -1 -61 -1 rrcurveto
        -2 3 -1 5 8 vvcurveto
        78 31 336 57 161 vhcurveto
        return
      </CharString>
      <CharString index="40">
        72 67 67 61 67 81 rrcurveto
        46 56 59 71 27 vvcurveto
        17 -14 3 -9 -23 -8 -17 -25 -6 vhcurveto
        -25 -103 -208 -188 -30 -25 rrcurveto
        -25 60 -67 162 67 return
      </CharString>
      <CharString index="41">
        5 -4 -5 2 -6 hhcurveto
        -24 -35 -29 -27 -7 3 -7 6 -6 hvcurveto
        -56 callgsubr
        21 96 69 99 35 vhcurveto
        3 10 8 6 18 vvcurveto
        8 -1 10 -5 15 vhcurveto
        return
      </CharString>
      <CharString index="42">
        -8 32 359 -20 hstem
        243 44 vstem
        287 343 rmoveto
        31 -17 9 -19 -9 -10 -3 -2 -7 vhcurveto
        -32 -12 -88 -28 -59 -76 rrcurveto
        -9 -11 -3 -11 -10 -63 143 -43 -44 vvcurveto
        -37 -121 -28 -31 -8 -3 -6 -6 -9 7 -11 11 56 127 61 64 60 -92 -4 -33 64 vhcurveto
        -4 7 -1 6 7 vvcurveto
        48 89 37 17 4 vhcurveto
        2 12 12 3 9 hhcurveto
        11 7 -4 -11 hvcurveto
        -16 -22 -38 -18 vvcurveto
        -4 2 -2 2 18 43 68 26 2 vhcurveto
        return
      </CharString>
      <CharString index="43">
        vhcurveto
        -109 -76 callgsubr
        116 hlineto
        -8 -2 -4 -8 vvcurveto
        -30 vlineto
        -33 -171 return
      </CharString>
      <CharString index="44">
        -57 callsubr
        -43 158 -22 55 rrcurveto
        return
      </CharString>
      <CharString index="45">
        rmoveto
        -1 -12 -10 0 -10 hhcurveto
        -33 -25 2 2 -26 hvcurveto
        3 3 2 4 4 30 callgsubr
        -5 1 -50 -8 -31 -8 7 -5 8 vhcurveto
        return
      </CharString>
      <CharString index="46">
        -11 -10 -2 -8 -7 hvcurveto
        -11 -8 rlineto
        -3 hlineto
        return
      </CharString>
      <CharString index="47">
        rmoveto
        2 -6 -17 1 -21 -35 -43 -2 -10 hhcurveto
        19 49 19 68 15 vvcurveto
        4 -1 -3 2 -4 hhcurveto
        -32 -22 -93 -44 -14 hvcurveto
        -99 2 rlineto
        -17 -2 -12 -11 -10 vvcurveto
        -5 -7 -3 34 34 59 1 1 vhcurveto
        1 -3 -17 -63 -19 -59 rrcurveto
        -2 -3 -2 -13 -11 vvcurveto
        -8 1 -7 4 3 5 7 18 9 vhcurveto
        41 85 11 47 2 8 rrcurveto
        53 9 96 -5 15 vvcurveto
        2 -3 3 -5 3 vhcurveto
        return
      </CharString>
      <CharString index="48">
        28 callsubr
        -23 -14 -9 -5 6 -4 18 hvcurveto
        65 hlineto
        -10 -38 -80 -273 -58 callsubr
        66 234 9 25 rrcurveto
        44 78 2 30 -20 callsubr
        -3 hvcurveto
        -8 -27 -9 -23 -19 -18 2 -15 hhcurveto
        return
      </CharString>
      <CharString index="49">
        -58 -169 vhcurveto
        -46 callgsubr
        return
      </CharString>
      <CharString index="50">
        rmoveto
        2 109 vlineto
        -31 callsubr
        -21 -52 -1 -56 hhcurveto
        return
      </CharString>
      <CharString index="51">
        -18 callgsubr
        -4 vvcurveto
        -35 -69 -81 -32 -32 vhcurveto
        -2 0 callgsubr
        return
      </CharString>
      <CharString index="52">
        -6 5 -2 7 16 26 13 14 49 -33 203 2 vhcurveto
        return
      </CharString>
      <CharString index="53">
        131 54 39 hvcurveto
        -12 -41 -21 -78 -36 vvcurveto
        return
      </CharString>
      <CharString index="54">
        5 3 3 6 6 vvcurveto
        12 -9 return
      </CharString>
      <CharString index="55">
        569 594 rmoveto
        5 -5 -8 2 -3 -9 -144 -67 -77 hhcurveto
        -4 -3 1 1 -1 hvcurveto
        2 10 2 10 9 vvcurveto
        26 -47 callgsubr
        144 40 hvcurveto
        29 callgsubr
        vvcurveto
        53 1 100 32 52 25 -101 -114 -266 -356 -31 -85 rrcurveto
        return
      </CharString>
      <CharString index="56">
        rmoveto
        2 -1 -2 1 callgsubr
        return
      </CharString>
      <CharString index="57">
        -17 -180 rrcurveto
        -111 -76 callgsubr
        131 hlineto
        return
      </CharString>
      <CharString index="58">
        -98 350 -21 243 -20 hstem
        298 564 rmoveto
        6 -3 -5 2 -6 hhcurveto
        -17 -25 -22 0 hvcurveto
        -2 -1 rlineto
        -10 -8 -6 -12 -12 vvcurveto
        -8 3 -8 6 -6 vhcurveto
        -56 callgsubr
        23 95 64 112 37 vhcurveto
        return
      </CharString>
      <CharString index="59">
        -15 -5 -19 -19 -10 3 callgsubr
        -2 5 vhcurveto
        29 hlineto
        hintmask 01010000
        -13 callgsubr
        hintmask 10010000
        8 8 3 5 6 hvcurveto
        hintmask 00110000
        82 84 -1 80 hhcurveto
        55 91 -15 52 -12 callgsubr
        -1 hlineto
        hintmask 10010000
        -13 callsubr
        -131 -86 1 -49 hhcurveto
        48 callgsubr
        4 9 vvcurveto
        return
      </CharString>
      <CharString index="60">
        -11 21 -33 -62 -132 -169 -66 -18 12 -41 33 vhcurveto
        13 hlineto
        66 106 return
      </CharString>
      <CharString index="61">
        -3 -9 -1 -6 -34 callgsubr
        return
      </CharString>
      <CharString index="62">
        261 48 -87 callgsubr
        endchar
      </CharString>
      <CharString index="63">
        -31 callgsubr
        2 4 callsubr
        2 31 callsubr
        -6 -24 -9 -24 -6 5 -6 5 vhcurveto
        2 26 callgsubr
        hhcurveto
        -22 callgsubr
      </CharString>
      <CharString index="64">
        45 vstem
        229 315 rmoveto
        2 48 callgsubr
        1 vhcurveto
        -45 33 -43 32 -33 45 -8 4 rcurveline
        -9 -2 -6 -7 -17 82 -98 16 -19 hvcurveto
        -13 -18 -86 -125 -10 vvcurveto
        -4 38 callgsubr
        8 7 5 6 4 vhcurveto
        19 28 100 126 21 vvcurveto
        return
      </CharString>
      <CharString index="65">
        10 7 2 49 callgsubr
        -2 10 -5 16 vhcurveto
        return
      </CharString>
      <CharString index="66">
        6 -1 -6 3 -8 hhcurveto
        return
      </CharString>
      <CharString index="67">
        vstem
        212 641 rmoveto
        3 -1 2 -4 -23 -97 -64 -113 -35 vhcurveto
        -3 -10 -7 -2 -13 3 callgsubr
        -39 20 18 25 23 0 vhcurveto
        -1 hlineto
        -23 callgsubr
        return
      </CharString>
      <CharString index="68">
        -13 callsubr
        -134 -78 1 -48 hhcurveto
        -3 return
      </CharString>
      <CharString index="69">
        -74 -56 -1 -41 -84 -27 1 -13 hhcurveto
        return
      </CharString>
      <CharString index="70">
        hhcurveto
        21 9 23 13 -12 callgsubr
        return
      </CharString>
      <CharString index="71">
        -25 callsubr
        -17 -25 -22 0 hvcurveto
        -2 12 callgsubr
        return
      </CharString>
      <CharString index="72">
        -41 callgsubr
        -45 return
      </CharString>
      <CharString index="73">
        -6 vvcurveto
        -13 8 -5 11 return
      </CharString>
      <CharString index="74">
        311 rmoveto
        39 -8 -18 22 -21 hhcurveto
        return
      </CharString>
      <CharString index="75">
        1 2 0 1 2 return
      </CharString>
      <CharString index="76">
        rmoveto
        1 -9 -5 1 -7 hhcurveto
        -8 -1 hlineto
        -2 -12 -19 0 -20 -41 -49 2 -24 hhcurveto
        1 2 return
      </CharString>
      <CharString index="77">
        -38 callgsubr
        5 return
      </CharString>
      <CharString index="78">
        -128 11 -20 656 -20 hstem
        269 623 34 callgsubr
        -23 -82 15 callsubr
        3 -1 -7 vvcurveto
        31 callgsubr
        -3 -9 vhcurveto
        return
      </CharString>
      <CharString index="79">
        rmoveto
        3 -31 -52 1 -58 hhcurveto
        -97 -180 2 -42 -17 33 -29 8 4 2 2 6 1 hvcurveto
        7 -6 10 -3 2 vhcurveto
        20 23 112 8 74 hhcurveto
        77 60 -8 -8 return
      </CharString>
      <CharString index="80">
        197 204 145 244 return
      </CharString>
      <CharString index="81">
        -4 6 25 callsubr
        hvcurveto
        return
      </CharString>
      <CharString index="82">
        -12 -12 vvcurveto
        -8 3 -8 6 -6 vhcurveto
        return
      </CharString>
      <CharString index="83">
        272 0 30 -17 -21 28 -21 658 -20 hstemhm
        hintmask 10010000
        216 -11 callsubr
        -55 -20 -44 -44 vhcurveto
        -30 vlineto
        return
      </CharString>
      <CharString index="84">
        2 1 rlineto
        10 7 5 12 12 15 -14 9 11 vvcurveto
        35 69 81 33 33 vhcurveto
        return
      </CharString>
      <CharString index="85">
        -1 6 7 0 8 hhcurveto
        65 134 19 9 1 -3 1 -6 1 hvcurveto
        endchar
      </CharString>
      <CharString index="86">
        -1 -1 -1 -1 -1 hvcurveto
        -8 3 22 -15 9 hhcurveto
        14 14 2 1 14 hvcurveto
        return
      </CharString>
      <CharString index="87">
        59 55 25 64 hhcurveto
        6 3 5 4 4 return
      </CharString>
      <CharString index="88">
        -301 rmoveto
        69 35 102 55 64 43 -15 -19 rcurveline
        -38 -46 -28 -52 -23 -32 rrcurveto
        9 -28 -27 9 -33 hhcurveto
        -12 -15 -1 -1 -16 hvcurveto
        endchar
      </CharString>
      <CharString index="89">
        1 -1 rlineto
        3 -8 callsubr
        return
      </CharString>
      <CharString index="90">
        vhcurveto
        -32 -41 -4 -13 -26 callgsubr
        11 15 2 13 hhcurveto
        6 hlineto
        -3 -9 -5 -24 -8 -6 3 -2 -5 vvcurveto
        -2 vlineto
        return
      </CharString>
      <CharString index="91">
        370 rmoveto
        11 5 -3 7 -13 hhcurveto
        -6 -5 0 -1 -5 hvcurveto
        -14 -1 -15 -6 -4 -11 -4 -6 -4 -4 -3 -6 -40 -40 return
      </CharString>
      <CharString index="92">
        23 95 64 112 37 vhcurveto
        return
      </CharString>
      <CharString index="93">
        -14 10 -8 14 15 16 10 19 8 -5 0 -2 18 vhcurveto
        return
      </CharString>
      <CharString index="94">
        -5 4 7 -3 8 hhcurveto
        return
      </CharString>
      <CharString index="95">
        6 -1 4 -3 hvcurveto
        return
      </CharString>
      <CharString index="96">
        -69 callgsubr
        endchar
      </CharString>
      <CharString index="97">
        2 -1 2 return
      </CharString>
      <CharString index="98">
        2 -7 -8 1 -7 hhcurveto
        -99 -66 -201 -71 -12 hvcurveto
        -3 0 callsubr
        vvcurveto
        -54 22 -24 32 return
      </CharString>
      <CharString index="99">
        36 -112 33 -97 38 -99 rrcurveto
        1 return
      </CharString>
      <CharString index="100">
        -15 callgsubr
        -1 1 rlineto
        21 callgsubr
        return
      </CharString>
      <CharString index="101">
        -59 -21 -53 -53 -68 hvcurveto
        -92 -71 -187 -87 -122 hhcurveto
        -75 -13 27 60 -2 hvcurveto
        endchar
      </CharString>
      <CharString index="102">
        -34 16 -27 hhcurveto
        return
      </CharString>
      <CharString index="103">
        -8 -19 7 -16 hhcurveto
        -12 -20 -10 -15 -8 8 -13 19 hvcurveto
        4 32 callsubr
        hhcurveto
        -1 10 return
      </CharString>
      <CharString index="104">
        -38 52 -39 -30 -90 -116 43 -30 vvcurveto
        -5 4 -6 5 57 92 29 70 vhcurveto
        endchar
      </CharString>
      <CharString index="105">
        rmoveto
        3 -18 2 -17 -17 vvcurveto
        -57 -26 -58 -74 -20 -22 6 17 -26 vhcurveto
        22 63 rlineto
        return
      </CharString>
      <CharString index="106">
        151 0 31 -18 -21 632 32 -32 68 return
      </CharString>
      <CharString index="107">
        vlineto
        48 callsubr
        3 return
      </CharString>
      <CharString index="108">
        1 -3 hhcurveto
        return
      </CharString>
      <CharString index="109">
        -36 callgsubr
        -6 -12 return
      </CharString>
      <CharString index="110">
        vvcurveto
        -3 2 return
      </CharString>
      <CharString index="111">
        53 99 53 vstem
        return
      </CharString>
      <CharString index="112">
        19 -12 5 21 -11 hhcurveto
        -23 -4 -25 -11 hvcurveto
        -7 vlineto
        -33 16 -38 95 return
      </CharString>
      <CharString index="113">
        18 callsubr
        2 -2 vhcurveto
        45 return
      </CharString>
      <CharString index="114">
        rrcurveto
        -41 callgsubr
        return
      </CharString>
      <CharString index="115">
        1 18 hhcurveto
        return
      </CharString>
      <CharString index="116">
        -64 hlineto
        -10 -24 -16 -10 -5 6 -4 17 23 38 3 1 6 hvcurveto
        return
      </CharString>
      <CharString index="117">
        vlineto
        -10 1 -3 6 18 10 37 11 return
      </CharString>
      <CharString index="118">
        rmoveto
        25 -16 24 -27 -41 -49 -53 -52 return
      </CharString>
      <CharString index="119">
        -1 rlineto
        -10 -8 return
      </CharString>
      <CharString index="120">
        25 49 rrcurveto
        1 hlineto
        66 -7 144 -30 26 -80 rrcurveto
        endchar
      </CharString>
      <CharString index="121">
        -21 -101 -137 -17 vvcurveto
        6 callgsubr
        -36 return
      </CharString>
      <CharString index="122">
        121 8 rmoveto
        1 4 5 -2 7 -2 -6 26 33 vvcurveto
        return
      </CharString>
      <CharString index="123">
        hhcurveto
        -157 -74 126 138 return
      </CharString>
      <CharString index="124">
        339 -1 40 -26 -21 return
      </CharString>
      <CharString index="125">
        -1 2 1 return
      </CharString>
      <CharString index="126">
        3 -23 -92 21 -49 hhcurveto
        -51 -19 -19 -26 -16 hvcurveto
        return
      </CharString>
      <CharString index="127">
        0 callgsubr
        -15 callgsubr
        return
      </CharString>
      <CharString index="128">
        3 -42 callgsubr
        return
      </CharString>
      <CharString index="129">
        13 76 -20 165 29 hstem
        1 54 433 48 return
      </CharString>
      <CharString index="130">
        hhcurveto
        -15 hlineto
        -7 -6 -10 -8 -6 3 -5 9 hvcurveto
        return
      </CharString>
      <CharString index="131">
        rlineto
        1 -1 -17 callsubr
        -18 -42 -25 -27 return
      </CharString>
      <CharString index="132">
        -20 145 -20 hstemhm
        return
      </CharString>
      <CharString index="133">
        3 1 2 return
      </CharString>
      <CharString index="134">
        rrcurveto
        42 92 6 15 3 -8 3 -20 hvcurveto
        return
      </CharString>
      <CharString index="135">
        3 -8 callsubr
        -5 vvcurveto
        return
      </CharString>
      <CharString index="136">
        2 18 callgsubr
        return
      </CharString>
      <CharString index="137">
        35 callsubr
        2 return
      </CharString>
      <CharString index="138">
        -4 0 -5 return
      </CharString>
      <CharString index="139">
        221 31 return
      </CharString>
      <CharString index="140">
        233 681 rmoveto
        8 -6 3 -8 return
      </CharString>
      <CharString index="141">
        rmoveto
        -35 callgsubr
        -16 return
      </CharString>
      <CharString index="142">
        39 1 130 1 7 vvcurveto
        endchar
      </CharString>
      <CharString index="143">
        -1 1 -2 return
      </CharString>
      <CharString index="144">
        -6 3 -6 return
      </CharString>
      <CharString index="145">
        3 -2 3 return
      </CharString>
      <CharString index="146">
        -181 rmoveto
        50 -58 34 29 vvcurveto
        return
      </CharString>
      <CharString index="147">
        48 553 -21 124 -20 hstem
        return
      </CharString>
      <CharString index="148">
        hlineto
        18 50 21 55 16 43 rrcurveto
        return
      </CharString>
      <CharString index="149">
        -19 8 -13 16 6 17 8 7 return
      </CharString>
      <CharString index="150">
        -20 hstemhm
        523 54 return
      </CharString>
      <CharString index="151">
        hstem
        32 callgsubr
        vstem
        return
      </CharString>
      <CharString index="152">
        19 108 19 hstem
        return
      </CharString>
      <CharString index="153">
        -8 9 -2 8 return
      </CharString>
      <CharString index="154">
        1 -1 -2 return
      </CharString>
      <CharString index="155">
        -1 3 -2 return
      </CharString>
      <CharString index="156">
        13 vvcurveto
        7 return
      </CharString>
</ttFont>
